<?xml version="1.0" standalone="no"?>
<!DOCTYPE svg PUBLIC "-//W3C//DTD SVG 20010904//EN"
 "http://www.w3.org/TR/2001/REC-SVG-20010904/DTD/svg10.dtd">
<svg version="1.0" xmlns="http://www.w3.org/2000/svg"
 width="700.000000pt" height="700.000000pt" viewBox="0 0 700.000000 700.000000"
 preserveAspectRatio="xMidYMid meet">
<metadata>
Created by potrace 1.14, written by Peter Selinger 2001-2017
</metadata>
<g transform="translate(0.000000,700.000000) scale(0.100000,-0.100000)"
fill="#000000" stroke="none">
<path d="M0 3500 l0 -3500 3500 0 3500 0 0 3500 0 3500 -3500 0 -3500 0 0
-3500z m3377 2535 c296 -401 293 -396 293 -492 0 -25 -66 -264 -164 -595 -200
-675 -238 -809 -231 -816 3 -3 352 0 776 7 424 7 772 11 774 9 1 -2 113 -149
247 -328 261 -347 275 -372 266 -467 -3 -35 -840 -2664 -852 -2680 -3 -4 -460
599 -485 640 -18 28 -25 58 -28 110 l-5 72 172 463 c140 378 198 552 316 948
79 266 144 489 144 494 0 6 -360 10 -997 10 -549 0 -1015 4 -1035 9 -127 30
-211 147 -193 270 6 43 480 1655 493 1675 15 25 -57 -26 -445 -318 l-420 -315
-434 35 c-239 18 -438 34 -443 34 -8 0 638 488 1604 1212 334 251 427 315 436
306 6 -7 101 -134 211 -283z"/>
</g>
</svg>
