<svg width="31" height="23" viewBox="0 0 31 23" fill="none" xmlns="http://www.w3.org/2000/svg">
<path d="M29.4285 4.1498C29.1496 2.61035 27.8207 1.48926 26.2785 1.13926C23.9707 0.649805 19.6996 0.299805 15.0785 0.299805C10.4602 0.299805 6.1207 0.649805 3.81016 1.13926C2.2707 1.48926 0.939063 2.53926 0.660156 4.1498C0.378516 5.8998 0.0996094 8.3498 0.0996094 11.4998C0.0996094 14.6498 0.378516 17.0998 0.728516 18.8498C1.01016 20.3893 2.33906 21.5104 3.87852 21.8604C6.32852 22.3498 10.5285 22.6998 15.1496 22.6998C19.7707 22.6998 23.9707 22.3498 26.4207 21.8604C27.9602 21.5104 29.2891 20.4604 29.5707 18.8498C29.8496 17.0998 30.1996 14.5787 30.2707 11.4998C30.1285 8.3498 29.7785 5.8998 29.4285 4.1498ZM11.2996 16.3998V6.5998L19.8391 11.4998L11.2996 16.3998Z" fill="white"/>
</svg>
