<svg width="71" height="61" viewBox="0 0 71 61" fill="none" xmlns="http://www.w3.org/2000/svg">
<path d="M68.4967 52.5373C68.4967 54.2127 67.8598 55.8195 66.7261 57.0042C65.5924 58.1889 64.0548 58.8545 62.4516 58.8545H8.04516C6.44188 58.8545 4.90427 58.1889 3.77059 57.0042C2.6369 55.8195 2 54.2127 2 52.5373V17.7929C2 16.1175 2.6369 14.5107 3.77059 13.326C4.90427 12.1413 6.44188 11.4757 8.04516 11.4757H20.1355L26.1806 2H44.3161L50.3612 11.4757H62.4516C64.0548 11.4757 65.5924 12.1413 66.7261 13.326C67.8598 14.5107 68.4967 16.1175 68.4967 17.7929V52.5373Z" stroke="black" stroke-width="4" stroke-linecap="round" stroke-linejoin="round"/>
<path d="M35.2492 45.9818C41.7467 45.9818 47.014 40.4586 47.014 33.6454C47.014 26.8323 41.7467 21.3091 35.2492 21.3091C28.7517 21.3091 23.4844 26.8323 23.4844 33.6454C23.4844 40.4586 28.7517 45.9818 35.2492 45.9818Z" stroke="black" stroke-width="4" stroke-linecap="round" stroke-linejoin="round"/>
</svg>
