<svg width="24" height="24" viewBox="0 0 24 24" fill="none" xmlns="http://www.w3.org/2000/svg">
<path d="M20.9602 0.240234H3.04023C1.49463 0.240234 0.240234 1.49463 0.240234 3.04023V20.9602C0.240234 22.5058 1.49463 23.7602 3.04023 23.7602H20.9602C22.5058 23.7602 23.7602 22.5058 23.7602 20.9602V3.04023C23.7602 1.49463 22.5058 0.240234 20.9602 0.240234ZM18.7202 8.64023H17.6002C16.4018 8.64023 15.9202 8.92023 15.9202 9.76023V11.4402H18.7202L18.1602 14.2402H15.9202V22.6402H13.1202V14.2402H10.8802V11.4402H13.1202V9.76023C13.1202 7.52023 14.2402 5.84023 16.4802 5.84023C18.1042 5.84023 18.7202 6.40023 18.7202 6.40023V8.64023Z" fill="white"/>
</svg>
