<svg width="109" height="144" viewBox="0 0 109 144" fill="none" xmlns="http://www.w3.org/2000/svg">
<path d="M67.2636 3H16.2094C12.8243 3 9.57779 4.45392 7.18416 7.04193C4.79053 9.62993 3.4458 13.14 3.4458 16.8V127.2C3.4458 130.86 4.79053 134.37 7.18416 136.958C9.57779 139.546 12.8243 141 16.2094 141H92.7907C96.1758 141 99.4222 139.546 101.816 136.958C104.21 134.37 105.554 130.86 105.554 127.2V44.4L67.2636 3Z" stroke="#0000C3" stroke-width="5" stroke-linecap="round" stroke-linejoin="round"/>
<path d="M67.6025 3V44.1064H105.554" stroke="#0000C3" stroke-width="5" stroke-linecap="round" stroke-linejoin="round"/>
<path d="M80.2531 79.3406H28.7471" stroke="#0000C3" stroke-width="5" stroke-linecap="round" stroke-linejoin="round"/>
<path d="M80.2531 106.745H28.7471" stroke="#0000C3" stroke-width="5" stroke-linecap="round" stroke-linejoin="round"/>
<path d="M41.3977 50.957H35.0724H28.7471" stroke="#0000C3" stroke-width="5" stroke-linecap="round" stroke-linejoin="round"/>
</svg>
