<svg width="717" height="500" viewBox="0 0 717 500" fill="none" xmlns="http://www.w3.org/2000/svg">
<path d="M180.078 250.039C199.87 250.039 216.276 248.346 229.297 244.961L230.273 246.328L216.016 291.641H180.078V360H130.273V291.641H9.96094L9.17969 277.188L117.188 100.625L180.078 100.234V250.039ZM130.273 250.039V157.461L76.9531 250.039H130.273ZM245.906 233.828C245.906 214.167 248.771 195.807 254.5 178.75C260.359 161.693 268.497 146.979 278.914 134.609C301.18 108.438 329.37 95.3516 363.484 95.3516C396.167 95.3516 422.339 107.656 442 132.266C461.141 156.224 470.711 187.93 470.711 227.383C470.711 271.914 459.122 306.615 435.945 331.484C415.242 353.75 388.68 364.883 356.258 364.883C324.878 364.883 298.706 352.773 277.742 328.555C256.518 303.945 245.906 272.37 245.906 233.828ZM314.266 295.547C319.995 302.969 326.831 308.763 334.773 312.93C342.716 316.966 350.789 318.984 358.992 318.984C367.326 318.984 375.073 317.161 382.234 313.516C389.396 309.87 395.841 304.401 401.57 297.109C414.461 280.443 420.906 258.633 420.906 231.68C420.906 204.076 415.438 182.005 404.5 165.469C393.432 149.193 378.458 141.055 359.578 141.055C340.568 141.055 325.203 149.518 313.484 166.445C301.635 183.503 295.711 205.573 295.711 232.656C295.711 258.568 301.896 279.531 314.266 295.547ZM663.688 250.039C683.479 250.039 699.885 248.346 712.906 244.961L713.883 246.328L699.625 291.641H663.688V360H613.883V291.641H493.57L492.789 277.188L600.797 100.625L663.688 100.234V250.039ZM613.883 250.039V157.461L560.562 250.039H613.883Z" fill="url(#paint0_linear_314_36)"/>
<mask id="mask0_314_36" style="mask-type:alpha" maskUnits="userSpaceOnUse" x="9" y="95" width="705" height="270">
<path d="M180.078 250.039C199.87 250.039 216.276 248.346 229.297 244.961L230.273 246.328L216.016 291.641H180.078V360H130.273V291.641H9.96094L9.17969 277.188L117.188 100.625L180.078 100.234V250.039ZM130.273 250.039V157.461L76.9531 250.039H130.273ZM245.906 233.828C245.906 214.167 248.771 195.807 254.5 178.75C260.359 161.693 268.497 146.979 278.914 134.609C301.18 108.438 329.37 95.3516 363.484 95.3516C396.167 95.3516 422.339 107.656 442 132.266C461.141 156.224 470.711 187.93 470.711 227.383C470.711 271.914 459.122 306.615 435.945 331.484C415.242 353.75 388.68 364.883 356.258 364.883C324.878 364.883 298.706 352.773 277.742 328.555C256.518 303.945 245.906 272.37 245.906 233.828ZM314.266 295.547C319.995 302.969 326.831 308.763 334.773 312.93C342.716 316.966 350.789 318.984 358.992 318.984C367.326 318.984 375.073 317.161 382.234 313.516C389.396 309.87 395.841 304.401 401.57 297.109C414.461 280.443 420.906 258.633 420.906 231.68C420.906 204.076 415.438 182.005 404.5 165.469C393.432 149.193 378.458 141.055 359.578 141.055C340.568 141.055 325.203 149.518 313.484 166.445C301.635 183.503 295.711 205.573 295.711 232.656C295.711 258.568 301.896 279.531 314.266 295.547ZM663.688 250.039C683.479 250.039 699.885 248.346 712.906 244.961L713.883 246.328L699.625 291.641H663.688V360H613.883V291.641H493.57L492.789 277.188L600.797 100.625L663.688 100.234V250.039ZM613.883 250.039V157.461L560.562 250.039H613.883Z" fill="url(#paint1_linear_314_36)"/>
</mask>
<g mask="url(#mask0_314_36)">
<circle cx="679.007" cy="93.0071" r="68.0961" transform="rotate(-60.0321 679.007 93.0071)" fill="url(#paint2_linear_314_36)"/>
<circle cx="301.007" cy="267.007" r="68.0961" transform="rotate(-60.0321 301.007 267.007)" fill="url(#paint3_linear_314_36)"/>
<circle cx="125.088" cy="102.413" r="57.4106" transform="rotate(163.929 125.088 102.413)" fill="url(#paint4_linear_314_36)"/>
</g>
<defs>
<linearGradient id="paint0_linear_314_36" x1="145" y1="122" x2="641" y2="290" gradientUnits="userSpaceOnUse">
<stop stop-color="#F04D62"/>
<stop offset="0.505208" stop-color="#7052F2"/>
<stop offset="1" stop-color="#F7931E"/>
</linearGradient>
<linearGradient id="paint1_linear_314_36" x1="145" y1="122" x2="641" y2="290" gradientUnits="userSpaceOnUse">
<stop stop-color="#F04D62"/>
<stop offset="0.505208" stop-color="#7052F2"/>
<stop offset="1" stop-color="#F7931E"/>
</linearGradient>
<linearGradient id="paint2_linear_314_36" x1="679.007" y1="24.911" x2="679.007" y2="161.103" gradientUnits="userSpaceOnUse">
<stop stop-color="#F94D57"/>
<stop offset="0.46875" stop-color="#694DFB"/>
<stop offset="1" stop-color="#FCAB4F"/>
</linearGradient>
<linearGradient id="paint3_linear_314_36" x1="301.007" y1="198.911" x2="301.007" y2="335.103" gradientUnits="userSpaceOnUse">
<stop stop-color="#F94D57"/>
<stop offset="0.46875" stop-color="#694DFB"/>
<stop offset="1" stop-color="#FCAB4F"/>
</linearGradient>
<linearGradient id="paint4_linear_314_36" x1="125.088" y1="45.002" x2="125.088" y2="159.823" gradientUnits="userSpaceOnUse">
<stop stop-color="#F94D57"/>
<stop offset="0.46875" stop-color="#694DFB"/>
<stop offset="1" stop-color="#FCAB4F"/>
</linearGradient>
</defs>
</svg>
