<svg xmlns="http://www.w3.org/2000/svg" viewBox="0 0 406.86 486.31"><defs><style>.cls-1{fill:#fff;}</style></defs><title>Ресурс 50</title><g id="Слой_2" data-name="Слой 2"><g id="Слой_1-2" data-name="Слой 1"><polygon class="cls-1" points="55.94 34.41 33.85 5.06 79.75 17.28 55.94 34.41"/><polygon class="cls-1" points="12.75 67.39 14.26 19.04 36.92 49.15 12.75 67.39"/><polygon class="cls-1" points="59.89 130.48 0 125.76 37 97.91 37.01 97.92 60.82 80 84.73 111.77 59.89 130.48"/><path class="cls-1" d="M117.33,87.24,104,97.3,80.05,65.53l56.8-42.75,0,.07,16.37,21.9,7,9.47,8.23,11.11c3.29,4.38,4.1,10.35,2.25,16.59l-22.4,75.37-.06-.08-1.23,4.43,0,.13,0,.08-7.32,24.63,24.56,32.59-34.3.17v0l-27.79-.37c-13.26-.18-20.81-10.55-17-23.34l21.51-72.39,4.75-16Z"/><polygon class="cls-1" points="153.26 44.75 160.31 54.19 160.28 54.22 153.26 44.75"/><polygon class="cls-1" points="148.3 157.21 148.36 157.29 147.07 161.65 148.3 157.21"/><polygon class="cls-1" points="136.93 22.71 153.26 44.75 136.9 22.84 136.93 22.71"/><path class="cls-1" d="M221.89,255l10.84-36.45-38.2.1-36.41-48.38,89.59-2.1,31.56,41.93c3.29,4.38,4.1,10.35,2.24,16.6L225.15,401.77l-31.6-41.57c-3.34-4.39-4.16-10.38-2.29-16.65l22.11-59.88Z"/><polygon class="cls-1" points="345.48 448.7 255.85 329.61 259.67 317.5 353.74 442.48 345.48 448.7"/><polygon class="cls-1" points="211.98 270.33 146.17 182.89 149.84 170.57 215.49 257.81 211.98 270.33"/><polygon class="cls-1" points="14.85 0 22.33 1.99 23.11 2.2 105.21 111.28 101.55 123.61 14.6 8.08 14.61 7.8 14.85 0.01 14.85 0"/><polygon class="cls-1" points="22.33 1.99 22.73 1.69 23.11 2.2 22.33 1.99"/><polygon class="cls-1" points="14.6 8.08 14.47 7.91 14.61 7.8 14.6 8.08"/><polygon class="cls-1" points="281.6 375.25 250.54 437.89 286.99 486.31 318.31 424.02 281.6 375.25"/><polygon class="cls-1" points="300.71 360.61 370.41 347.41 406.86 395.83 337.42 409.37 300.71 360.61"/></g></g></svg>