<?xml version="1.0" standalone="no"?>
<!DOCTYPE svg PUBLIC "-//W3C//DTD SVG 1.1//EN" "http://www.w3.org/Graphics/SVG/1.1/DTD/svg11.dtd" >
<svg xmlns="http://www.w3.org/2000/svg" xmlns:xlink="http://www.w3.org/1999/xlink" version="1.1">
<metadata>
Created by FontForge 20191125 at Sat Sep  5 15:37:56 2015
 By convertio
(c) 2013-2015 by Story Choice 102, DLE Network and DLE TV. All rights reserved.
</metadata>
<defs>
<font id="Armegoe" horiz-adv-x="1223" >
  <font-face 
    font-family="Armegoe"
    font-weight="400"
    font-stretch="normal"
    units-per-em="2048"
    panose-1="2 0 5 0 0 0 0 0 0 0"
    ascent="1638"
    descent="-410"
    x-height="1024"
    cap-height="1434"
    bbox="-342 -482 2290 1864"
    underline-thickness="150"
    underline-position="-292"
    unicode-range="U+0020-F002"
  />
<missing-glyph horiz-adv-x="1024" 
 />
    <glyph glyph-name=".notdef" horiz-adv-x="1024" 
 />
    <glyph glyph-name=".null" horiz-adv-x="0" 
 />
    <glyph glyph-name="nonmarkingreturn" horiz-adv-x="508" 
 />
    <glyph glyph-name="space" unicode=" " horiz-adv-x="508" 
 />
    <glyph glyph-name="space" unicode="&#xa0;" horiz-adv-x="508" 
 />
    <glyph glyph-name="exclam" unicode="!" horiz-adv-x="622" 
d="M482 1434l-49 -1012h-220l34 1012h235zM311 -20q-60 0 -102 38.5t-42 93.5q0 57 42 97t102 40q58 0 100.5 -40t42.5 -97q0 -55 -42.5 -93.5t-100.5 -38.5z" />
    <glyph glyph-name="quotedbl" unicode="&#x22;" horiz-adv-x="896" 
d="M359 1442v-447h-182v447h182zM720 1442v-447h-184v447h184z" />
    <glyph glyph-name="numbersign" unicode="#" horiz-adv-x="1211" 
d="M1170 1049l-31 -140h-227l-58 -276h248l-35 -140h-242l-82 -370h-159l80 370h-242l-78 -370h-159l78 370h-229l28 140h232l55 276h-244l29 140h244l80 385h161l-79 -385h242l82 385h158l-80 -385h228zM754 909h-244l-60 -276h245z" />
    <glyph glyph-name="dollar" unicode="$" horiz-adv-x="1072" 
d="M461 1250q-3 0 -5 -1q-40 -11 -69 -33t-45 -55.5t-16 -78.5q0 -56 16.5 -105.5t117.5 -105.5zM622 178q23 4 44 10q52 14 85.5 42.5t48.5 70.5t15 98q0 61 -26 101.5t-68 67.5t-97 44h-2v-434zM622 828q21 -6 43 -11q56 -16 107.5 -38.5t96 -54t77 -77t50.5 -106.5
t18 -142q0 -122 -38 -203t-103.5 -130t-151.5 -69q-48 -12 -99 -17v-247l-161 -1v248q-52 5 -100 19q-85 22 -149.5 73t-103.5 132.5t-39 200.5h200q0 -54 19.5 -97t55 -73t85.5 -46q15 -5 32 -9v474q-57 17 -106 41q-71 34 -122 86.5t-79.5 124.5t-28.5 166q0 92 31.5 164
t87.5 121.5t133 75.5q40 13 84 19v145h161v-144q42 -5 81 -17q74 -22 130 -70.5t88.5 -125t32.5 -184.5h-199q0 45 -12 82.5t-38 64.5t-66 42q-8 3 -17 5v-422z" />
    <glyph glyph-name="percent" unicode="%" horiz-adv-x="1721" 
d="M416 714q-152 0 -242 97.5t-90 260.5q0 178 95.5 280.5t257.5 102.5q157 0 243.5 -95t86.5 -267t-97 -275.5t-254 -103.5zM430 1315q-82 0 -129.5 -63t-47.5 -173q0 -108 46.5 -168t127.5 -60t127 62.5t46 173.5q0 108 -45.5 168t-124.5 60zM1387 1434l-920 -1444h-143
l919 1444h144zM1258 -22q-152 0 -242 97.5t-90 260.5q0 178 95.5 280.5t257.5 102.5q157 0 243.5 -95t86.5 -267t-97 -275.5t-254 -103.5zM1272 579q-82 0 -129.5 -63t-47.5 -173q0 -108 46.5 -168t127.5 -60t127 62.5t46 173.5q0 108 -45.5 168t-124.5 60z" />
    <glyph glyph-name="ampersand" unicode="&#x26;" horiz-adv-x="1465" 
d="M1216 -62l-188 200q-43 -38 -95.5 -68.5t-111 -51.5t-121.5 -32t-127 -11q-108 0 -195 28t-148.5 79.5t-95 123.5t-33.5 160q0 247 328 416q-151 187 -151 332q0 75 29.5 138t82.5 108.5t126.5 71.5t160.5 26q83 0 150.5 -23t115.5 -64t74 -97.5t26 -122.5
q0 -65 -16.5 -117.5t-53 -98.5t-96 -88t-145.5 -84q79 -85 159.5 -169t163.5 -169l178 330l165 -77l-219 -395q45 -48 113.5 -118t88.5 -96zM834 1133q0 33 -12.5 62t-33.5 50.5t-49 34t-60 12.5q-42 0 -76.5 -12.5t-59 -36t-38 -55.5t-13.5 -71q0 -92 131 -238
q211 108 211 254zM907 268q-117 121 -366 390q-110 -57 -158.5 -122t-48.5 -152q0 -53 19.5 -95.5t53.5 -72.5t80.5 -46t100.5 -16q188 0 319 114z" />
    <glyph glyph-name="quotesingle" unicode="'" horiz-adv-x="529" 
d="M356 1442v-447h-183v447h183z" />
    <glyph glyph-name="parenleft" unicode="(" horiz-adv-x="680" 
d="M660 -326h-196q-316 354 -316 873q0 521 316 887h197q-310 -380 -310 -885q0 -501 309 -875z" />
    <glyph glyph-name="parenright" unicode=")" horiz-adv-x="680" 
d="M217 -326h-196q310 374 310 875q0 505 -311 885h198q317 -366 317 -887q0 -519 -318 -873z" />
    <glyph glyph-name="asterisk" unicode="*" horiz-adv-x="1024" 
d="M498 1294q-4 71 -37 130q-37 66 -37 84q0 32 23.5 51.5t62.5 19.5q37 0 61.5 -18t24.5 -47q0 -21 -36 -89q-33 -61 -37 -130q66 25 113 75q51 55 69 61q11 3 21 3q18 0 35 -10q26 -17 38 -53q6 -19 6 -36q0 -15 -4 -28q-10 -30 -38 -38q-6 -2 -19 -2q-25 0 -76 9
q-28 5 -55 5q-41 0 -81 -11q44 -55 105 -83q68 -32 79 -47q13 -18 13 -38q0 -9 -2 -17q-8 -30 -39 -53q-29 -22 -59 -22q-1 0 -1 1q-31 0 -48 23q-12 17 -22 94q-10 67 -47 125q-38 -58 -46 -124q-9 -75 -20 -90q-19 -25 -49 -27h-5q-28 0 -57 21q-30 21 -39 51q-4 10 -4 20
q0 17 11 32q13 17 83 51q61 29 105 82q-41 11 -80 11q-27 0 -53 -5q-54 -11 -78 -11q-9 0 -14 2q-30 9 -41 38q-6 13 -6 29q0 17 6 36q11 35 36 53q17 12 34 12q9 0 18 -3q20 -6 74 -62q47 -49 112 -75z" />
    <glyph glyph-name="plus" unicode="+" horiz-adv-x="1422" 
d="M1190 510h-395v-395h-165v395h-395v165h395v396h165v-396h395v-165z" />
    <glyph glyph-name="comma" unicode="," horiz-adv-x="494" 
d="M368 239l-155 -499h-174l110 499h219z" />
    <glyph glyph-name="hyphen" unicode="-" horiz-adv-x="823" 
d="M690 474h-546v171h546v-171z" />
    <glyph glyph-name="hyphen" unicode="&#xad;" horiz-adv-x="823" 
d="M690 474h-546v171h546v-171z" />
    <glyph glyph-name="period" unicode="." horiz-adv-x="494" 
d="M247 -22q-60 0 -102 39.5t-42 94.5q0 56 42 96t102 40q61 0 103.5 -40t42.5 -96q0 -55 -42.5 -94.5t-103.5 -39.5z" />
    <glyph glyph-name="slash" unicode="/" horiz-adv-x="847" 
d="M867 1434l-693 -1672h-211l690 1672h214z" />
    <glyph glyph-name="zero" unicode="0" horiz-adv-x="1166" 
d="M578 -24q-224 0 -358.5 201t-134.5 523q0 346 137 552t373 206q218 0 351 -200t133 -523q0 -351 -136.5 -555t-364.5 -204zM585 1249q-123 0 -199.5 -147t-76.5 -387q0 -239 74.5 -385t195.5 -146q128 0 202 139t74 389q0 257 -71.5 397t-198.5 140z" />
    <glyph glyph-name="one" unicode="1" horiz-adv-x="580" 
d="M177 0v1434h238v-1433z" />
    <glyph glyph-name="two" unicode="2" horiz-adv-x="1062" 
d="M52 6l-1 174q625 686 656 765.5t31 135.5q0 45 -20 78.5t-56 55.5t-100.5 33t-119 -4t-86.5 -42t-47 -64.5t-15 -82.5h-247q0 108 40.5 184.5t110 125t162 70.5t156 22t159 -25.5t165 -75t108.5 -121.5t39 -164q0 -94 -35 -166t-108.5 -174.5t-443.5 -515.5l587 -1v-208
h-935z" />
    <glyph glyph-name="three" unicode="3" horiz-adv-x="1220" 
d="M1147 414q0 -114 -39 -196.5t-109.5 -136.5t-170 -79.5t-219.5 -25.5q-131 0 -231.5 25.5t-168 72t-102 112.5t-34.5 148h235q0 -42 25 -74.5t66.5 -54.5t96.5 -33.5t115 -11.5q51 0 104 13.5t96.5 42.5t71 74t27.5 109q0 54 -21.5 101.5t-67 83t-116.5 56t-171 20.5
h-131v179h110q89 0 152 15t103 44.5t58.5 73t18.5 101.5q0 48 -16.5 85.5t-45.5 63t-70.5 38.5t-90.5 13q-41 0 -81.5 -12t-73 -33.5t-53 -53t-20.5 -70.5h-235q0 81 33.5 146.5t94.5 111.5t153.5 71t196.5 25q92 0 168 -20t139 -62t100.5 -107t37.5 -155q0 -86 -28 -148
t-73.5 -104t-95 -66t-106.5 -36q73 -5 139.5 -28.5t117.5 -66t81 -105t30 -146.5z" />
    <glyph glyph-name="four" unicode="4" horiz-adv-x="1145" 
d="M115 595l-8 839h238v-631h462v631h238v-1433l-238 -1v595h-692z" />
    <glyph glyph-name="five" unicode="5" horiz-adv-x="1192" 
d="M109 644v786l955 -1v-211h-706v-306q152 81 316 64t258 -106.5t128 -204.5t29 -226.5t-52.5 -217.5t-168.5 -173.5t-286 -57t-285.5 71.5t-169 142.5t-48.5 200.5h249q0 -54 24 -97t68 -78t106 -47.5t131 -1.5t110.5 44.5t70.5 95.5t28 186.5t-57 191.5t-137 83.5
t-176.5 -9.5t-153.5 -132z" />
    <glyph glyph-name="six" unicode="6" horiz-adv-x="1177" 
d="M619 753q-136 0 -215 -80t-79 -214t80 -216.5t214 -82.5q137 0 210.5 81t73.5 219.5t-73.5 215.5t-210.5 77zM325 827q123 111 307 111q240 0 364 -136t124 -348.5t-134.5 -345t-378.5 -132.5q-237 0 -373.5 143.5t-151 448.5t42 484.5t139 258.5t173 104.5t194 25.5
t229 -43.5t202.5 -158.5l-177 -121q-33 41 -71 71t-106.5 43.5t-148 1t-120.5 -44.5t-72.5 -109.5t-41.5 -252.5z" />
    <glyph glyph-name="seven" unicode="7" horiz-adv-x="1024" 
d="M956 1434l-399 -1434h-238l369 1225l-587 1v208h855z" />
    <glyph glyph-name="eight" unicode="8" horiz-adv-x="1220" 
d="M665 854q63 15 103 44.5t58.5 73t18.5 101.5q0 48 -16.5 85.5t-45.5 63t-70.5 38.5t-90.5 13h-32q-49 0 -90 -13t-70 -38.5t-45.5 -63t-16.5 -85.5q0 -58 18.5 -101.5t58 -73t102.5 -44.5q27 -6 59 -6t59 6zM606 1457q15 1 31 1q92 0 168 -20t139 -62t100.5 -107
t37.5 -155q0 -86 -28 -148t-73.5 -104t-95 -66t-106.5 -36q73 -5 139.5 -28.5t117.5 -66t81 -105t30 -146.5q0 -114 -39 -196.5t-109.5 -136.5t-170 -79.5t-219.5 -25.5h-6q-120 0 -219 25.5t-169 79.5t-109 136.5t-39 196.5q0 84 30 146.5t80.5 105t117 66t139.5 28.5
q-57 12 -106.5 36t-94.5 66t-73 104t-28 148q0 90 37 155t100 107t138.5 62t167.5 20q16 0 31 -1zM611 160q51 0 104 13.5t96.5 42.5t71 74t27.5 109q0 54 -21.5 101.5t-67 83t-116.5 56.5q-44 12 -99 12t-99 -12q-70 -21 -115.5 -56.5t-67 -83t-21.5 -101.5
q0 -64 27.5 -109t71 -74t96 -42.5t103.5 -13.5h10z" />
    <glyph glyph-name="nine" unicode="9" horiz-adv-x="1177" 
d="M581 664q136 0 215 80t79 214t-80 216.5t-214 82.5q-137 0 -210.5 -81t-73.5 -219.5t73.5 -215.5t210.5 -77zM875 590q-123 -111 -307 -111q-240 0 -364 136t-124 348.5t134.5 345t378.5 132.5q237 0 373.5 -143.5t151 -448.5t-42 -484.5t-139 -258.5t-173 -104.5
t-194 -25.5t-229 43.5t-202.5 158.5l177 121q33 -41 71 -71t106.5 -43.5t148 -1t120.5 44.5t72.5 109.5t41.5 252.5z" />
    <glyph glyph-name="colon" unicode=":" horiz-adv-x="494" 
d="M247 -22q-60 0 -102 39.5t-42 94.5q0 56 42 96t102 40q61 0 103.5 -40t42.5 -96q0 -55 -42.5 -94.5t-103.5 -39.5zM247 769q-60 0 -102 39.5t-42 94.5q0 56 42 96t102 40q61 0 103.5 -40t42.5 -96q0 -55 -42.5 -94.5t-103.5 -39.5z" />
    <glyph glyph-name="semicolon" unicode=";" horiz-adv-x="494" 
d="M247 771q-59 0 -99.5 40.5t-40.5 96.5t40.5 95t99.5 39q57 0 98 -39t41 -95t-41 -96.5t-98 -40.5zM368 239l-152 -503h-177l109 503h220z" />
    <glyph glyph-name="semicolon" unicode="&#x37e;" horiz-adv-x="494" 
d="M247 771q-59 0 -99.5 40.5t-40.5 96.5t40.5 95t99.5 39q57 0 98 -39t41 -95t-41 -96.5t-98 -40.5zM368 239l-152 -503h-177l109 503h220z" />
    <glyph glyph-name="less" unicode="&#x3c;" horiz-adv-x="1422" 
d="M1159 98l-893 429v106l893 466v-190l-653 -324v-4l653 -294v-189z" />
    <glyph glyph-name="equal" unicode="=" horiz-adv-x="1422" 
d="M1190 724h-955v165h955v-165zM1190 295h-955v164h955v-164z" />
    <glyph glyph-name="greater" unicode="&#x3e;" horiz-adv-x="1422" 
d="M1159 533l-893 -429v189l654 291v6l-654 324v190l893 -465v-106z" />
    <glyph glyph-name="question" unicode="?" horiz-adv-x="909" 
d="M280 459q0 151 24.5 200.5t61 92.5t79 83t79 78t61 80t24.5 92q0 45 -18 78.5t-44.5 56t-87 38.5t-128 -9t-84.5 -181l-196 1q-11 369 368 389q101 0 173 -21t126 -62t85 -102t31 -142q0 -77 -26 -137t-65.5 -110.5t-85 -89.5t-85 -78t-65.5 -81t-26 -173zM417 -18
q-57 0 -101 39q-42 38 -42 94q0 57 42 94q43 40 101 40q57 0 100 -40q42 -37 42 -94q0 -56 -42 -94q-44 -39 -100 -39z" />
    <glyph glyph-name="at" unicode="@" horiz-adv-x="1955" 
d="M1147 397h-5q-72 -215 -282 -215q-134 0 -216 100.5t-82 270.5q0 225 112.5 374t296.5 149q70 0 125 -38.5t71 -92.5h3q3 28 15 115h166q-47 -528 -47 -538q0 -198 103 -198q94 0 156 110.5t62 286.5q0 260 -167.5 424.5t-464.5 164.5q-285 0 -472 -199t-187 -498
q0 -295 180 -476t485 -181q240 0 411 82v-154q-175 -74 -437 -74q-368 0 -593 220t-225 576q0 366 238 607t608 241q347 0 574.5 -202t227.5 -527q0 -238 -123.5 -390.5t-301.5 -152.5q-230 0 -231 215zM988 934q-110 0 -177.5 -108t-67.5 -269q0 -108 45.5 -170.5
t121.5 -62.5q110 0 174 113.5t64 300.5q0 196 -160 196z" />
    <glyph glyph-name="A" unicode="A" horiz-adv-x="1412" 
d="M913 528l-210 585l-209 -585h419zM425 336l-120 -335l-238 -1l513 1434h247l514 -1434l-239 1l-120 335h-557z" />
    <glyph glyph-name="B" unicode="B" horiz-adv-x="1220" 
d="M334 859h179q89 0 152 14t103 41.5t58.5 68.5t18.5 95q0 45 -16.5 80t-45.5 59t-70 36q-33 10 -381 6zM335 650l2 -476h300q25 0 78 13t96.5 40.5t71 70.5t27.5 104q0 51 -21.5 96t-67 79t-116.5 53.5t-171 19.5h-199zM637 1458q92 0 168 -20t139 -62t100.5 -107
t37.5 -155q0 -86 -28 -148t-73.5 -104t-95 -66t-106.5 -36q73 -5 139.5 -28.5t117.5 -66t81 -105t30 -146.5q0 -114 -39 -196.5t-109.5 -136.5t-170 -79.5t-189.5 -25.5h-540l3 1482h535z" />
    <glyph glyph-name="C" unicode="C" horiz-adv-x="1473" 
d="M1163 434l230 -70q-45 -103 -120 -184q-189 -204 -505 -204q-310 0 -496.5 201t-186.5 523q0 346 190 552t516 206q302 0 487 -200q71 -78 115 -175l-224 -99q-27 71 -71 125q-116 140 -319 140q-197 0 -320.5 -147t-123.5 -387q0 -239 120 -385t314 -146q206 0 325 139
q42 49 69 111z" />
    <glyph glyph-name="D" unicode="D" horiz-adv-x="1496" 
d="M147 -20v1480h115q424 1 449 1q302 0 486.5 -199.5t184.5 -522.5q0 -351 -189 -555t-505 -204h-541zM385 1251v-1063l304 -1q206 0 325 139.5t119 389.5q0 257 -115.5 397t-318.5 140q-16 0 -314 -2z" />
    <glyph glyph-name="E" unicode="E" horiz-adv-x="1322" 
d="M395 631v-422l817 -1v-208h-1055v1440h1055v-208l-817 -1v-391h767v-208z" />
    <glyph glyph-name="F" unicode="F" horiz-adv-x="1322" 
d="M395 531v-532l-238 1v1440h1055v-208l-817 -1v-491h747v-208z" />
    <glyph glyph-name="G" unicode="G" horiz-adv-x="1473" 
d="M1395 1l-238 -1v82q-162 -106 -389 -106q-310 0 -496.5 201t-186.5 523q0 346 190 552t516 206q302 0 487 -200q71 -78 115 -175l-224 -99q-27 71 -71 125q-116 140 -319 140q-197 0 -320.5 -147t-123.5 -387q0 -239 120 -385t314 -146q206 0 325 139q37 44 63 98v150
h-438v215h676v-785z" />
    <glyph glyph-name="H" unicode="H" horiz-adv-x="1435" 
d="M395 595v-594l-238 -1v1434h238v-631h682v631h238v-1433l-238 -1v595h-682z" />
    <glyph glyph-name="I" unicode="I" horiz-adv-x="580" 
d="M177 0v1434h238v-1433z" />
    <glyph glyph-name="J" unicode="J" horiz-adv-x="926" 
d="M766 580q0 -604 -592 -604l-2 208q356 0 356 407v843h238v-854z" />
    <glyph glyph-name="K" unicode="K" horiz-adv-x="1435" 
d="M395 505v-504l-238 -1v1434h238v-661l622 661h288l-593 -657l603 -776l-278 -1l-497 642z" />
    <glyph glyph-name="L" unicode="L" horiz-adv-x="1322" 
d="M157 0v1434h238v-1225l817 -1v-208h-1055z" />
    <glyph glyph-name="M" unicode="M" horiz-adv-x="1951" 
d="M415 939v-938l-238 -1v1434h238l575 -1194l572 1194h237v-1434l-237 1v939l-451 -940h-244z" />
    <glyph glyph-name="N" unicode="N" horiz-adv-x="1392" 
d="M415 1033v-1032l-238 -1v1434h238l622 -1046v1046h238v-1433l-238 -1h-8z" />
    <glyph glyph-name="O" unicode="O" horiz-adv-x="1548" 
d="M768 -24q-310 0 -496.5 201t-186.5 523q0 346 190 552t516 206q302 0 486.5 -200t184.5 -523q0 -351 -189 -555t-505 -204zM779 1249q-197 0 -320.5 -147t-123.5 -387q0 -239 120 -385t314 -146q206 0 325 139t119 389q0 257 -115.5 397t-318.5 140z" />
    <glyph glyph-name="P" unicode="P" horiz-adv-x="1220" 
d="M110 0v1434h525q247 0 383 -115t136 -324t-142 -342t-384 -133h-281v-519zM347 1238v-524h244q153 0 233 71t80 200q0 253 -294 253h-263z" />
    <glyph glyph-name="Q" unicode="Q" horiz-adv-x="1548" 
d="M1108 340q105 137 105 372q0 257 -115.5 397t-318.5 140q-197 0 -320.5 -147t-123.5 -387q0 -239 120 -385t314 -146q80 0 147 21l-202 218l171 158zM1073 36q-134 -60 -305 -60q-310 0 -496.5 201t-186.5 523q0 346 190 552t516 206q302 0 486.5 -200t184.5 -523
q0 -351 -189 -555q-4 -4 -8 -9l211 -227l-171 -158z" />
    <glyph glyph-name="R" unicode="R" horiz-adv-x="1221" 
d="M347 1238v-354h304q253 -8 243 173t-234 181h-313zM577 690h-230v-689l-237 -1v1434h525q247 0 358 -90t106 -309t-183 -281q50 -22 91 -55q51 -43 81 -105.5t30 -146.5v-451l-237 2v434q0 54 -21.5 101.5t-67 83t-116.5 56.5q-44 12 -99 17z" />
    <glyph glyph-name="S" unicode="S" horiz-adv-x="1346" 
d="M1260 399q0 -122 -47.5 -203t-128.5 -130t-189 -69.5t-228 -20.5q-114 0 -219 22.5t-185.5 73.5t-129 132.5t-48.5 200.5h249q0 -54 24 -97t68 -73t106 -46t137 -16q92 0 157.5 14.5t107 43t60.5 70.5t19 98q0 61 -32.5 101.5t-85 67.5t-120.5 43.5t-139 29.5
q-107 19 -195.5 53.5t-152 87t-98.5 124.5t-35 166q0 92 39 164t108.5 121.5t165 75t207.5 25.5q105 0 197.5 -22t162 -70.5t110 -125t40.5 -184.5h-247q0 45 -15 82.5t-47 64.5t-82 42t-121 15q-58 0 -107.5 -11t-85.5 -33t-56 -55.5t-20 -78.5q0 -56 21 -95.5t58.5 -67.5
t88.5 -45.5t112 -28.5q71 -13 141.5 -28.5t134.5 -38t119 -54t95.5 -77t63 -106.5t22.5 -142z" />
    <glyph glyph-name="T" unicode="T" horiz-adv-x="1302" 
d="M757 1236v-1235l-238 -1v1236h-447l-1 198h1134v-198h-448z" />
    <glyph glyph-name="U" unicode="U" horiz-adv-x="1520" 
d="M1360 580q0 -604 -612 -604q-588 0 -588 581v877h238v-828q0 -422 368 -422q356 0 356 407v843h238v-854z" />
    <glyph glyph-name="V" unicode="V" horiz-adv-x="1412" 
d="M1103 1433l238 1l-513 -1434h-247l-514 1434l239 -1l399 -1112z" />
    <glyph glyph-name="W" unicode="W" horiz-adv-x="2114" 
d="M1069 1110l-341 -1110h-247l-414 1434l239 2l299 -1115l338 1112h263l299 -1112l338 1112l241 -2l-456 -1431h-247z" />
    <glyph glyph-name="X" unicode="X" horiz-adv-x="1299" 
d="M793 718l446 -717l-257 -1l-318 511l-316 -511l-256 1l444 716l-447 717h258l317 -510l316 510h256z" />
    <glyph glyph-name="Y" unicode="Y" horiz-adv-x="1299" 
d="M543 677l-454 747h258l317 -520l316 520h256l-455 -746v-679l-238 -1v679z" />
    <glyph glyph-name="Z" unicode="Z" horiz-adv-x="1202" 
d="M1155 1330l-786 -1129h776v-201h-1109v109l789 1123h-728v202h1058v-104z" />
    <glyph glyph-name="bracketleft" unicode="[" horiz-adv-x="680" 
d="M621 -326h-413v1760h413v-156h-216v-1448h216v-156z" />
    <glyph glyph-name="backslash" unicode="\" horiz-adv-x="829" 
d="M869 -240h-206l-676 1674h210z" />
    <glyph glyph-name="bracketright" unicode="]" horiz-adv-x="680" 
d="M474 -326h-413v156h216v1448h-216v156h413v-1760z" />
    <glyph glyph-name="asciicircum" unicode="^" horiz-adv-x="1422" 
d="M1208 618h-192l-312 604h-6l-291 -604h-189l425 840h109z" />
    <glyph glyph-name="underscore" unicode="_" horiz-adv-x="850" 
d="M850 -297h-850v119h850v-119z" />
    <glyph glyph-name="grave" unicode="`" horiz-adv-x="591" 
d="M516 1126h-173l-262 328h214z" />
    <glyph glyph-name="a" unicode="a" 
d="M616 863q-136 0 -215 -95t-79 -262q0 -161 80 -253.5t214 -92.5q137 0 210.5 91t73.5 259q0 169 -73.5 261t-210.5 92zM910 127q-1 -2 -3 -3q-131 -148 -351 -148q-215 0 -343 143.5t-128 380.5q0 258 133.5 403t359.5 145q211 0 332 -134v110h232v-1025h-232v128z" />
    <glyph glyph-name="b" unicode="b" horiz-adv-x="1247" 
d="M432 771q-74 -92 -74 -261q0 -168 74 -259t211 -91q134 0 214.5 92.5t80.5 253.5q0 167 -79.5 262t-215.5 95q-137 0 -211 -92zM348 -1h-232v1525h232v-610q121 134 333 134q226 0 360 -145t134 -403q0 -237 -128 -380.5t-344 -143.5q-220 0 -352 148l-3 3v-128z" />
    <glyph glyph-name="c" unicode="c" horiz-adv-x="1177" 
d="M878 351l219 -68q-36 -91 -103 -159q-145 -148 -389 -148q-237 0 -378.5 143.5t-141.5 380.5q0 258 147.5 403t397.5 145q240 0 374 -141q50 -52 81 -120l-222 -76q-15 33 -36 60q-74 92 -211 92q-136 0 -215 -95t-79 -262q0 -161 80 -253.5t214 -92.5q137 0 211 91
q33 42 51 100z" />
    <glyph glyph-name="d" unicode="d" 
d="M616 863q-136 0 -215 -95t-79 -262q0 -161 80 -253.5t214 -92.5q137 0 210.5 91t73.5 259q0 169 -73.5 261t-210.5 92zM910 127q-1 -2 -3 -3q-131 -148 -351 -148q-215 0 -343 143.5t-128 380.5q0 258 133.5 403t359.5 145q211 0 332 -134v610h232v-1525h-232v128z" />
    <glyph glyph-name="e" unicode="e" 
d="M897 580q-13 119 -70 191q-74 92 -211 92q-136 0 -215 -95q-61 -73 -75 -188h571zM857 297l207 -82q-29 -50 -70 -91q-145 -148 -389 -148q-237 0 -378.5 143.5t-141.5 380.5q0 258 147.5 403t397.5 145q240 0 374 -141t134 -391q0 -54 -7 -104l-802 3q17 -98 73 -162
q80 -93 214 -93q137 0 211 91q17 21 30 46z" />
    <glyph glyph-name="f" unicode="f" horiz-adv-x="800" 
d="M188 1025v21q0 193 106 319t303 126h142v-181h-123q-196 0 -196 -279v-6h300v-185h-300v-844h-232v844h-138v185h138z" />
    <glyph glyph-name="g" unicode="g" horiz-adv-x="1234" 
d="M1083 82q0 -141 -36.5 -247t-105.5 -176.5t-169 -105.5t-227 -35q-33 0 -80 5t-98 19t-101.5 39.5t-90.5 66t-65 98.5t-25 138h237q0 -89 61 -136t163 -47q70 0 126.5 22.5t96.5 67.5t61 112t21 157v112h-4q-115 -196 -346 -196q-105 0 -183 40.5t-130 109.5t-77.5 160.5
t-25.5 192.5q0 114 27 217.5t83.5 181.5t143.5 124t207 46q204 0 301 -166h4v142h232v-942zM603 863q-66 0 -118 -25t-88.5 -72.5t-55.5 -116.5t-19 -156q0 -65 15.5 -124.5t47.5 -106t81 -74t117 -27.5q63 0 113 25t85 67t53.5 98t18.5 118v133q0 52 -19 99.5t-52.5 83.5
t-79 57t-99.5 21z" />
    <glyph glyph-name="h" unicode="h" horiz-adv-x="1192" 
d="M1061 0h-232v560q0 304 -203 304q-102 0 -172 -88t-70 -225v-551h-233v1516h233v-662h4q116 194 332 194q341 0 341 -417v-631z" />
    <glyph glyph-name="i" unicode="i" horiz-adv-x="594" 
d="M442 -1h-232v1025h232v-1025zM442 1201h-232v235h232v-235z" />
    <glyph glyph-name="j" unicode="j" horiz-adv-x="594" 
d="M442 -26q0 -193 -106 -319t-303 -126h-142v181h123q196 0 196 279v1035h232v-1050zM442 1201h-232v235h232v-235z" />
    <glyph glyph-name="k" unicode="k" horiz-adv-x="1137" 
d="M375 325v-324l-238 -1v1434h238v-841l362 453h288l-363 -449l413 -596l-278 -1l-307 462z" />
    <glyph glyph-name="l" unicode="l" horiz-adv-x="594" 
d="M442 -1h-232v1437h232v-1437z" />
    <glyph glyph-name="m" unicode="m" horiz-adv-x="1814" 
d="M1663 -4h-232v558q0 161 -45.5 233t-153.5 72q-91 0 -154.5 -91t-63.5 -218v-554h-233v577q0 286 -202 286q-94 0 -154.5 -86t-60.5 -223v-554h-232v1024h232v-162h4q111 186 323 186q106 0 185.5 -58.5t108.5 -153.5q114 212 340 212q338 0 338 -417v-631z" />
    <glyph glyph-name="n" unicode="n" horiz-adv-x="1195" 
d="M1063 0h-232v577q0 287 -203 287q-106 0 -175 -79.5t-69 -200.5v-584h-233v1024h233v-170h4q115 194 332 194q167 0 255 -108.5t88 -313.5v-626z" />
    <glyph glyph-name="o" unicode="o" 
d="M605 -24q-237 0 -378.5 143.5t-141.5 380.5q0 258 147.5 403t397.5 145q240 0 374 -141t134 -391q0 -245 -144.5 -392.5t-388.5 -147.5zM616 863q-136 0 -215 -95t-79 -262q0 -161 80 -253.5t214 -92.5q137 0 210.5 91t73.5 259q0 169 -73.5 261t-210.5 92z" />
    <glyph glyph-name="p" unicode="p" horiz-adv-x="1234" 
d="M151 1024h232v-180h4q119 204 348 204q195 0 304 -137t109 -368q0 -256 -123 -410t-336 -154q-196 0 -302 172h-4v-572h-232v1445zM381 553v-120q0 -106 71.5 -179.5t181.5 -73.5q129 0 202.5 95t73.5 264q0 143 -68.5 223.5t-185.5 80.5q-124 0 -199.5 -83t-75.5 -207z
" />
    <glyph glyph-name="q" unicode="q" horiz-adv-x="1292" 
d="M850 -421v597h-4q-105 -200 -343 -200q-189 0 -303.5 137.5t-114.5 374.5q0 255 125.5 407.5t337.5 152.5q206 0 298 -166h4v142h232v-1214l160 50v-181zM853 466v132q0 111 -71.5 188t-181.5 77q-129 0 -203.5 -96.5t-74.5 -272.5q0 -156 72 -245t186 -89q125 0 199 87
t74 219z" />
    <glyph glyph-name="r" unicode="r" horiz-adv-x="829" 
d="M728 784q-206 30 -275 -64.5t-69 -215.5v-504h-233v1024h233v-170h4q115 194 342 174z" />
    <glyph glyph-name="s" unicode="s" horiz-adv-x="986" 
d="M937 283q0 -89 -34.5 -147.5t-93 -94t-137 -50.5t-163.5 -15t-161 16.5t-134.5 53.5t-93.5 96t-35 145h241q0 -39 24 -67t64 -49.5t100.5 -21.5t98 10.5t62.5 31t34 36t9 56.5q0 44 -23.5 73.5t-61.5 49t-132 33t-158 33.5t-110 53t-76.5 95.5t-25.5 139.5t33 129.5
t78.5 88.5t120 54.5t150.5 18.5q76 0 143 -16t117.5 -51.5t80 -91t29.5 -133.5h-209q0 33 -34.5 69.5t-123 39.5t-125 -33t-30.5 -100.5t53 -90t153 -38t152.5 -28.5t86.5 -39t69 -61t45.5 -87.5t16.5 -107.5z" />
    <glyph glyph-name="t" unicode="t" horiz-adv-x="713" 
d="M50 839v185h138v232l232 40v-272h220v-185h-220v-386q0 -278 196 -278h43v-181h-62q-197 0 -303 125.5t-106 318.5v401h-138z" />
    <glyph glyph-name="u" unicode="u" horiz-adv-x="1195" 
d="M1044 0h-232v162h-4q-101 -186 -314 -186q-363 0 -363 436v612h232v-588q0 -276 213 -276q103 0 169.5 76t66.5 199v589h232v-1024z" />
    <glyph glyph-name="v" unicode="v" horiz-adv-x="1015" 
d="M723 1033l238 1l-323 -1034h-247l-324 1034l239 -1l209 -752z" />
    <glyph glyph-name="w" unicode="w" horiz-adv-x="1682" 
d="M849 676l-211 -676h-247l-324 1034l239 -1l209 -752l208 752h253l209 -752l208 752l238 1l-323 -1034h-247z" />
    <glyph glyph-name="x" unicode="x" horiz-adv-x="968" 
d="M597 512l286 -513h-232l-170 304l-169 -304h-232l285 513l-286 512h232l170 -304l169 304h232z" />
    <glyph glyph-name="y" unicode="y" horiz-adv-x="1186" 
d="M873 1030h230v-948q0 -141 -36.5 -247t-105.5 -176.5t-169 -105.5t-227 -35q-33 0 -80 5t-98 19t-101.5 39.5t-90.5 66t-65 98.5t-25 138h237q0 -89 61 -136t163 -47q70 0 126.5 22.5t96.5 67.5t61 112t21 157v112h-4q-115 -196 -346 -196q-105 0 -183 40.5t-130 109.5
t-77.5 160.5t-25.5 192.5v551h237v-562q0 -41 16 -99q15 -60 47 -106.5t81 -74t117 -27.5q63 0 113 25t85 67t53.5 98t18.5 118v561z" />
    <glyph glyph-name="z" unicode="z" horiz-adv-x="967" 
d="M910 927l-546 -746h551l1 -181h-876l-1 87l561 756h-511l-1 181h824z" />
    <glyph glyph-name="braceleft" unicode="{" horiz-adv-x="680" 
d="M608 -326q-356 4 -356 304v295q0 198 -156 208v146q156 10 156 212v287q0 304 356 308v-155q-159 -4 -159 -191v-282q0 -202 -199 -249v-3q199 -44 199 -247v-279q0 -107 35.5 -152.5t123.5 -47.5v-154z" />
    <glyph glyph-name="bar" unicode="|" horiz-adv-x="570" 
d="M383 -482h-194v2048h194v-2048z" />
    <glyph glyph-name="braceright" unicode="}" horiz-adv-x="680" 
d="M583 481q-155 -10 -155 -208v-295q0 -300 -354 -304v154q87 2 123.5 48t36.5 152v279q0 203 197 247v3q-197 47 -197 249v282q0 187 -160 191v155q354 -4 354 -308v-287q0 -202 155 -212v-146z" />
    <glyph glyph-name="asciitilde" unicode="~" horiz-adv-x="1422" 
d="M1220 759q-7 -159 -80.5 -246.5t-199.5 -87.5q-109 0 -266 98q-97 67 -159 67q-140 0 -146 -169h-166q5 155 79.5 245t201.5 90q113 0 236 -76q132 -91 197 -91q61 0 98 47t39 123h166z" />
    <glyph glyph-name="exclamdown" unicode="&#xa1;" horiz-adv-x="622" 
d="M167 -430l49 1012h220l-34 -1012h-235zM338 1024q60 0 102 -38.5t42 -93.5q0 -57 -42 -97t-102 -40q-58 0 -100.5 40t-42.5 97q0 55 42.5 93.5t100.5 38.5z" />
    <glyph glyph-name="cent" unicode="&#xa2;" horiz-adv-x="1166" 
d="M468 192q30 -6 63 -6q137 0 211 91q33 42 51 100l219 -68q-36 -91 -103 -159q-145 -148 -389 -148q-67 0 -126 11l-129 -311h-211l159 384q-39 26 -71 60q-142 143 -142 380q0 258 147.5 403t397.5 145q38 0 74 -4l125 304h214l-148 -358q61 -33 109 -83q50 -52 81 -120
l-222 -76q-15 33 -36 60l-16 18zM544 889h-13q-136 0 -215 -95t-79 -262q0 -143 64 -233z" />
    <glyph glyph-name="sterling" unicode="&#xa3;" horiz-adv-x="1137" 
d="M1055 0h-932v176q206 62 206 281v168h-185v175h185v245q0 181 115.5 297t299.5 116q124 0 226 -41v-201q-95 57 -201 57q-218 0 -218 -267v-206h284v-175h-284v-138q0 -215 -193 -301h697v-186z" />
    <glyph glyph-name="currency" unicode="&#xa4;" horiz-adv-x="1014" 
d="M350 560q41 -40 99 -57q29 -8 58 -8t58 8q58 17 99 57q40 41 57 99q9 29 9 58t-9 58q-17 58 -57 99q-41 40 -100 57q-29 8 -58 8t-58 -9q-58 -17 -98 -56q-39 -40 -56 -98q-10 -30 -10 -60q0 -28 9 -56q16 -59 57 -100zM240 903l-118 118l80 81l118 -118q44 30 99 46
q44 14 89 14q41 0 83 -12q57 -17 102 -48l118 118l80 -81l-117 -117q31 -46 48 -102q12 -42 12 -85q0 -42 -12 -85q-17 -56 -48 -102l117 -117l-80 -81l-118 118q-45 -32 -101 -48q-42 -12 -85 -12q-42 0 -85 12q-57 16 -102 48l-118 -118l-80 81l118 117q-32 46 -48 103
q-12 42 -12 84q0 44 13 87q16 55 47 99z" />
    <glyph glyph-name="yen" unicode="&#xa5;" horiz-adv-x="1166" 
d="M677 393v-394l-202 -1v395h-324v119h324v119h-324v119h286l-348 674h219l269 -520l269 520h218l-350 -674h287v-119h-324v-119h324v-119h-324z" />
    <glyph glyph-name="brokenbar" unicode="&#xa6;" horiz-adv-x="1014" 
d="M427 371h160v-789h-160v789zM427 1578h160v-789h-160v789z" />
    <glyph glyph-name="section" unicode="&#xa7;" horiz-adv-x="952" 
d="M697 424q90 -75 90 -189q0 -134 -107 -217.5t-273 -83.5q-140 0 -255 56v196q132 -79 253 -79q85 0 131.5 35.5t46.5 90.5q0 47 -35.5 80t-181.5 103q-235 120 -235 313q0 161 145 241q-106 84 -106 226q0 129 99.5 212t261.5 83q138 0 233 -43v-191q-100 62 -221 62
q-166 0 -166 -128q0 -48 41 -88t206 -109q225 -107 225 -294q0 -170 -152 -276zM423 884q-95 -45 -95 -141q0 -64 53 -112t185 -104q83 60 83 152q0 64 -49.5 109t-176.5 96z" />
    <glyph glyph-name="dieresis" unicode="&#xa8;" horiz-adv-x="902" 
d="M247 1078q-60 0 -102 39.5t-42 94.5q0 56 42 96t102 40q61 0 103.5 -40t42.5 -96q0 -55 -42.5 -94.5t-103.5 -39.5zM647 1078q-60 0 -102 39.5t-42 94.5q0 56 42 96t102 40q61 0 103.5 -40t42.5 -96q0 -55 -42.5 -94.5t-103.5 -39.5z" />
    <glyph glyph-name="copyright" unicode="&#xa9;" horiz-adv-x="1808" 
d="M905 -29q-314 0 -535.5 218.5t-221.5 527.5t221.5 527.5t535.5 218.5q313 0 534.5 -218.5t221.5 -527.5t-221.5 -527.5t-534.5 -218.5zM905 1364q-269 0 -459 -189.5t-190 -457.5t190 -457.5t459 -189.5t458.5 189.5t189.5 457.5t-189.5 457.5t-458.5 189.5zM1206 275
q-113 -65 -268 -65q-207 0 -347.5 138t-140.5 345q0 241 143.5 384.5t373.5 143.5q132 0 235 -51v-190q-88 72 -234 72q-144 0 -237.5 -93t-93.5 -249q0 -152 95.5 -244t242.5 -92q135 0 231 78v-177z" />
    <glyph glyph-name="ordfeminine" unicode="&#xaa;" horiz-adv-x="864" 
d="M435 1323q-89 0 -141.5 -57t-52.5 -157q0 -97 53 -152.5t141 -55.5q91 0 139.5 54.5t48.5 155.5t-48.5 156.5t-139.5 55.5zM629 881q0 -1 -2 -2q-86 -88 -231 -88q-142 0 -226.5 86t-84.5 228q0 155 88 242t237 87q140 0 219 -81v66h154v-615h-154v77zM646 553h-425v119
h425v-119z" />
    <glyph glyph-name="guillemotleft" unicode="&#xab;" horiz-adv-x="2208" 
d="M1159 98l-893 429v106l893 466v-190l-653 -324v-4l653 -294v-189zM1945 98l-893 429v106l893 466v-190l-653 -324v-4l653 -294v-189z" />
    <glyph glyph-name="logicalnot" unicode="&#xac;" horiz-adv-x="1014" 
d="M87 767h840v-491l-1 -1h-98v392h-741v100z" />
    <glyph glyph-name="registered" unicode="&#xae;" horiz-adv-x="1808" 
d="M904 255q-251 0 -428.5 175t-177.5 423q0 247 177.5 424t428.5 177q250 0 428 -177t178 -424q0 -248 -178 -423t-428 -175zM905 1354q-206 0 -352.5 -148t-146.5 -354t146.5 -351.5t352.5 -145.5q207 0 352 145.5t145 351.5t-145 354t-352 148zM1214 483h-177l-73 174
q-56 130 -121 130h-44v-304h-144v752h226q141 0 217 -55t76 -150q0 -77 -46.5 -131.5t-137.5 -73.5v-3q63 -13 125 -139zM799 1115v-214h82q139 0 139 108q0 55 -37.5 80.5t-117.5 25.5h-66z" />
    <glyph glyph-name="macron" unicode="&#xaf;" horiz-adv-x="823" 
d="M690 1239h-546v171h546v-171z" />
    <glyph glyph-name="degree" unicode="&#xb0;" horiz-adv-x="674" 
d="M339 1372q-86 0 -147.5 -61t-61.5 -148t61 -147t148 -60t147 60t60 147t-60.5 148t-146.5 61zM339 1442q115 0 196 -81.5t81 -196.5q0 -114 -82 -196t-197 -82q-117 0 -197 81t-80 197t81.5 197t197.5 81z" />
    <glyph glyph-name="plusminus" unicode="&#xb1;" horiz-adv-x="1075" 
d="M1020 653h-395v-395h-165v395h-395v165h395v396h165v-396h395v-165zM117 0v140h839l1 -1v-139h-840z" />
    <glyph glyph-name="uni00B2" unicode="&#xb2;" horiz-adv-x="1062" 
d="M52 6l-1 174q625 686 656 765.5t31 135.5q0 45 -20 78.5t-56 55.5t-100.5 33t-119 -4t-86.5 -42t-47 -64.5t-15 -82.5h-247q0 108 40.5 184.5t110 125t162 70.5t156 22t159 -25.5t165 -75t108.5 -121.5t39 -164q0 -94 -35 -166t-108.5 -174.5t-443.5 -515.5l587 -1v-208
h-935z" />
    <glyph glyph-name="uni00B3" unicode="&#xb3;" horiz-adv-x="1220" 
d="M1147 414q0 -114 -39 -196.5t-109.5 -136.5t-170 -79.5t-219.5 -25.5q-131 0 -231.5 25.5t-168 72t-102 112.5t-34.5 148h235q0 -42 25 -74.5t66.5 -54.5t96.5 -33.5t115 -11.5q51 0 104 13.5t96.5 42.5t71 74t27.5 109q0 54 -21.5 101.5t-67 83t-116.5 56t-171 20.5
h-131v179h110q89 0 152 15t103 44.5t58.5 73t18.5 101.5q0 48 -16.5 85.5t-45.5 63t-70.5 38.5t-90.5 13q-41 0 -81.5 -12t-73 -33.5t-53 -53t-20.5 -70.5h-235q0 81 33.5 146.5t94.5 111.5t153.5 71t196.5 25q92 0 168 -20t139 -62t100.5 -107t37.5 -155q0 -86 -28 -148
t-73.5 -104t-95 -66t-106.5 -36q73 -5 139.5 -28.5t117.5 -66t81 -105t30 -146.5z" />
    <glyph glyph-name="acute" unicode="&#xb4;" horiz-adv-x="591" 
d="M445 1452h214l-262 -328h-173z" />
    <glyph glyph-name="mu" unicode="&#xb5;" horiz-adv-x="1195" 
d="M1044 0h-232v162h-4q-101 -186 -314 -186q-363 0 -363 436v612h232v-588q0 -276 213 -276q103 0 169.5 76t66.5 199v589h232v-1024z" />
    <glyph glyph-name="paragraph" unicode="&#xb6;" horiz-adv-x="1024" 
d="M929 1435v-70h-127v-1365h-82v1365h-166v-1365h-84v738q-174 8 -275.5 102.5t-101.5 245.5q0 157 107.5 253t285.5 96h443z" />
    <glyph glyph-name="periodcentered" unicode="&#xb7;" horiz-adv-x="606" 
d="M300 562q-57 0 -98 40t-41 96q0 57 41 98t98 41q56 0 96 -41t40 -98q0 -56 -40 -96t-96 -40z" />
    <glyph glyph-name="periodcentered" unicode="&#x2219;" horiz-adv-x="606" 
d="M300 562q-57 0 -98 40t-41 96q0 57 41 98t98 41q56 0 96 -41t40 -98q0 -56 -40 -96t-96 -40z" />
    <glyph glyph-name="cedilla" unicode="&#xb8;" horiz-adv-x="429" 
d="M420 -248q0 -194 -288 -194q-47 0 -81 3v111q44 -6 71 -6q133 0 133 82q0 74 -121 74q-10 0 -39 -4v182h136v-94q87 0 138 -40.5t51 -113.5z" />
    <glyph glyph-name="uni00B9" unicode="&#xb9;" horiz-adv-x="580" 
d="M177 0v1434h238v-1433z" />
    <glyph glyph-name="ordmasculine" unicode="&#xba;" horiz-adv-x="865" 
d="M428 791q-156 0 -249.5 86t-93.5 228q0 155 97.5 242t262.5 87q158 0 246.5 -84.5t88.5 -234.5q0 -147 -95.5 -235.5t-256.5 -88.5zM435 1323q-89 0 -141.5 -57t-52.5 -157q0 -97 53 -152.5t141 -55.5q91 0 139.5 54.5t48.5 155.5t-48.5 156.5t-139.5 55.5zM645 553h-425
v119h425v-119z" />
    <glyph glyph-name="guillemotright" unicode="&#xbb;" horiz-adv-x="2208" 
d="M1159 533l-893 -429v189l654 291v6l-654 324v190l893 -465v-106zM1945 533l-893 -429v189l654 291v6l-654 324v190l893 -465v-106z" />
    <glyph glyph-name="questiondown" unicode="&#xbf;" horiz-adv-x="909" 
d="M653 547q0 -151 -24.5 -200.5t-61 -92.5t-79 -83t-79 -78t-61 -80t-24.5 -92q0 -45 18 -78.5t44.5 -56t87 -38.5t128 9t84.5 181l196 -1q11 -369 -368 -389q-101 0 -173 21t-126 62t-85 102t-31 142q0 77 26 137t65.5 110.5t85 89.5t85 78t65.5 81t26 173zM516 1024
q57 0 101 -39q42 -38 42 -94q0 -57 -42 -94q-43 -40 -101 -40q-57 0 -100 40q-42 37 -42 94q0 56 42 94q44 39 100 39z" />
    <glyph glyph-name="Agrave" unicode="&#xc0;" horiz-adv-x="1412" 
d="M913 528l-210 585l-209 -585h419zM425 336l-120 -335l-238 -1l513 1434h247l514 -1434l-239 1l-120 335h-557zM838 1536h-173l-262 328h214z" />
    <glyph glyph-name="Aacute" unicode="&#xc1;" horiz-adv-x="1412" 
d="M913 528l-210 585l-209 -585h419zM425 336l-120 -335l-238 -1l513 1434h247l514 -1434l-239 1l-120 335h-557zM807 1862h214l-262 -328h-173z" />
    <glyph glyph-name="Acircumflex" unicode="&#xc2;" horiz-adv-x="1412" 
d="M913 528l-210 585l-209 -585h419zM425 336l-120 -335l-238 -1l513 1434h247l514 -1434l-239 1l-120 335h-557zM413 1489l232 355h118l232 -355h-168l-123 216l-123 -216h-168z" />
    <glyph glyph-name="Atilde" unicode="&#xc3;" horiz-adv-x="1412" 
d="M913 528l-210 585l-209 -585h419zM425 336l-120 -335l-238 -1l513 1434h247l514 -1434l-239 1l-120 335h-557zM1015 1756q-5 -97 -49.5 -150.5t-121.5 -53.5q-67 0 -163 60q-59 41 -97 41q-85 0 -89 -103h-101q3 95 48.5 149.5t122.5 54.5q69 0 144 -46q81 -55 121 -55
q37 0 59.5 28.5t23.5 74.5h102z" />
    <glyph glyph-name="Adieresis" unicode="&#xc4;" horiz-adv-x="1412" 
d="M913 528l-210 585l-209 -585h419zM425 336l-120 -335l-238 -1l513 1434h247l514 -1434l-239 1l-120 335h-557zM503 1488q-60 0 -102 39.5t-42 94.5q0 56 42 96t102 40q61 0 103.5 -40t42.5 -96q0 -55 -42.5 -94.5t-103.5 -39.5zM903 1488q-60 0 -102 39.5t-42 94.5
q0 56 42 96t102 40q61 0 103.5 -40t42.5 -96q0 -55 -42.5 -94.5t-103.5 -39.5z" />
    <glyph glyph-name="Aring" unicode="&#xc5;" horiz-adv-x="1412" 
d="M913 528l-210 585l-209 -585h419zM425 336l-120 -335l-238 -1l513 1434h247l514 -1434l-239 1l-120 335h-557zM603 1667q0 -42 29 -71t71 -29t71 29t29 71q0 40 -29.5 69.5t-70.5 29.5t-70.5 -29.5t-29.5 -69.5zM527 1667q0 75 51 126t125 51q76 0 127.5 -51.5
t51.5 -125.5q0 -75 -51.5 -126.5t-127.5 -51.5q-74 0 -125 51.5t-51 126.5z" />
    <glyph glyph-name="AE" unicode="&#xc6;" horiz-adv-x="1979" 
d="M814 336h-389l-120 -335l-238 -1l513 1434l1289 6v-208l-817 -1v-391h767v-208l-764 -1l1 -422l813 -1v-208h-1055v336zM814 528l-1 675l-84 6l-235 -681h320z" />
    <glyph glyph-name="Ccedilla" unicode="&#xc7;" horiz-adv-x="1473" 
d="M691 -21q-257 23 -419 198q-187 201 -187 523q0 346 190 552t516 206q302 0 487 -200q71 -78 115 -175l-224 -99q-27 71 -71 125q-116 140 -319 140q-197 0 -320.5 -147t-123.5 -387q0 -239 120 -385t314 -146q206 0 325 139q42 49 69 111l230 -70q-45 -103 -120 -184
q-171 -185 -446 -202v-75q87 0 138 -40.5t51 -113.5q0 -194 -288 -194q-47 0 -81 3v111q44 -6 71 -6q133 0 133 82q0 74 -121 74q-10 0 -39 -4v164z" />
    <glyph glyph-name="Egrave" unicode="&#xc8;" horiz-adv-x="1322" 
d="M395 631v-422l817 -1v-208h-1055v1440h1055v-208l-817 -1v-391h767v-208zM819 1536h-173l-262 328h214z" />
    <glyph glyph-name="Eacute" unicode="&#xc9;" horiz-adv-x="1322" 
d="M395 631v-422l817 -1v-208h-1055v1440h1055v-208l-817 -1v-391h767v-208zM788 1862h214l-262 -328h-173z" />
    <glyph glyph-name="Ecircumflex" unicode="&#xca;" horiz-adv-x="1322" 
d="M395 631v-422l817 -1v-208h-1055v1440h1055v-208l-817 -1v-391h767v-208zM394 1489l232 355h118l232 -355h-168l-123 216l-123 -216h-168z" />
    <glyph glyph-name="Edieresis" unicode="&#xcb;" horiz-adv-x="1322" 
d="M395 631v-422l817 -1v-208h-1055v1440h1055v-208l-817 -1v-391h767v-208zM484 1488q-60 0 -102 39.5t-42 94.5q0 56 42 96t102 40q61 0 103.5 -40t42.5 -96q0 -55 -42.5 -94.5t-103.5 -39.5zM884 1488q-60 0 -102 39.5t-42 94.5q0 56 42 96t102 40q61 0 103.5 -40
t42.5 -96q0 -55 -42.5 -94.5t-103.5 -39.5z" />
    <glyph glyph-name="Igrave" unicode="&#xcc;" horiz-adv-x="580" 
d="M188 0v1434h238v-1433zM441 1536h-173l-262 328h214z" />
    <glyph glyph-name="Iacute" unicode="&#xcd;" horiz-adv-x="580" 
d="M151 0v1434h238v-1433zM373 1862h214l-262 -328h-173z" />
    <glyph glyph-name="Icircumflex" unicode="&#xce;" horiz-adv-x="580" 
d="M177 0v1434h238v-1433zM5 1489l232 355h118l232 -355h-168l-123 216l-123 -216h-168z" />
    <glyph glyph-name="Idieresis" unicode="&#xcf;" horiz-adv-x="580" 
d="M177 0v1434h238v-1433zM95 1488q-60 0 -102 39.5t-42 94.5q0 56 42 96t102 40q61 0 103.5 -40t42.5 -96q0 -55 -42.5 -94.5t-103.5 -39.5zM495 1488q-60 0 -102 39.5t-42 94.5q0 56 42 96t102 40q61 0 103.5 -40t42.5 -96q0 -55 -42.5 -94.5t-103.5 -39.5z" />
    <glyph glyph-name="Eth" unicode="&#xd0;" horiz-adv-x="1496" 
d="M415 605v-417l304 -1q206 0 325 139.5t119 389.5q0 257 -115.5 397t-318.5 140q-16 0 -314 -2v-451h173v-195h-173zM177 800v660h115q424 1 449 1q302 0 486.5 -199.5t184.5 -522.5q0 -351 -189 -555t-505 -204h-541v625h-90v195h90z" />
    <glyph glyph-name="Ntilde" unicode="&#xd1;" horiz-adv-x="1392" 
d="M415 1033v-1032l-238 -1v1434h238l622 -1046v1046h238v-1433l-238 -1h-8zM1037 1756q-5 -97 -49.5 -150.5t-121.5 -53.5q-67 0 -163 60q-59 41 -97 41q-85 0 -89 -103h-101q3 95 48.5 149.5t122.5 54.5q69 0 144 -46q81 -55 121 -55q37 0 59.5 28.5t23.5 74.5h102z" />
    <glyph glyph-name="Ograve" unicode="&#xd2;" horiz-adv-x="1548" 
d="M768 -24q-310 0 -496.5 201t-186.5 523q0 346 190 552t516 206q302 0 486.5 -200t184.5 -523q0 -351 -189 -555t-505 -204zM779 1249q-197 0 -320.5 -147t-123.5 -387q0 -239 120 -385t314 -146q206 0 325 139t119 389q0 257 -115.5 397t-318.5 140zM908 1536h-173
l-262 328h214z" />
    <glyph glyph-name="Oacute" unicode="&#xd3;" horiz-adv-x="1548" 
d="M768 -24q-310 0 -496.5 201t-186.5 523q0 346 190 552t516 206q302 0 486.5 -200t184.5 -523q0 -351 -189 -555t-505 -204zM779 1249q-197 0 -320.5 -147t-123.5 -387q0 -239 120 -385t314 -146q206 0 325 139t119 389q0 257 -115.5 397t-318.5 140zM877 1862h214
l-262 -328h-173z" />
    <glyph glyph-name="Ocircumflex" unicode="&#xd4;" horiz-adv-x="1548" 
d="M768 -24q-310 0 -496.5 201t-186.5 523q0 346 190 552t516 206q302 0 486.5 -200t184.5 -523q0 -351 -189 -555t-505 -204zM779 1249q-197 0 -320.5 -147t-123.5 -387q0 -239 120 -385t314 -146q206 0 325 139t119 389q0 257 -115.5 397t-318.5 140zM483 1489l232 355
h118l232 -355h-168l-123 216l-123 -216h-168z" />
    <glyph glyph-name="Otilde" unicode="&#xd5;" horiz-adv-x="1548" 
d="M768 -24q-310 0 -496.5 201t-186.5 523q0 346 190 552t516 206q302 0 486.5 -200t184.5 -523q0 -351 -189 -555t-505 -204zM779 1249q-197 0 -320.5 -147t-123.5 -387q0 -239 120 -385t314 -146q206 0 325 139t119 389q0 257 -115.5 397t-318.5 140zM1084 1756
q-5 -97 -49.5 -150.5t-121.5 -53.5q-67 0 -163 60q-59 41 -97 41q-85 0 -89 -103h-101q3 95 48.5 149.5t122.5 54.5q69 0 144 -46q81 -55 121 -55q37 0 59.5 28.5t23.5 74.5h102z" />
    <glyph glyph-name="Odieresis" unicode="&#xd6;" horiz-adv-x="1548" 
d="M768 -24q-310 0 -496.5 201t-186.5 523q0 346 190 552t516 206q302 0 486.5 -200t184.5 -523q0 -351 -189 -555t-505 -204zM779 1249q-197 0 -320.5 -147t-123.5 -387q0 -239 120 -385t314 -146q206 0 325 139t119 389q0 257 -115.5 397t-318.5 140zM573 1488
q-60 0 -102 39.5t-42 94.5q0 56 42 96t102 40q61 0 103.5 -40t42.5 -96q0 -55 -42.5 -94.5t-103.5 -39.5zM973 1488q-60 0 -102 39.5t-42 94.5q0 56 42 96t102 40q61 0 103.5 -40t42.5 -96q0 -55 -42.5 -94.5t-103.5 -39.5z" />
    <glyph glyph-name="multiply" unicode="&#xd7;" horiz-adv-x="1014" 
d="M507 618l-247 -247l-99 99l247 247l-247 248l99 98l247 -247l248 247l98 -99l-247 -247l247 -247l-99 -99z" />
    <glyph glyph-name="Oslash" unicode="&#xd8;" horiz-adv-x="1548" 
d="M939 1225q-72 26 -160 26q-197 0 -320.5 -147t-123.5 -387q0 -239 120 -385q38 -46 83 -78zM723 188q22 -2 46 -2q206 0 325 139t119 389q0 251 -111 391zM1197 1333q43 -32 81 -73q184 -200 184 -523q0 -351 -189 -555t-505 -204q-67 0 -129 9l-43 -104h-211l67 162
q-101 49 -180 134q-187 201 -187 523q0 346 190 552t516 206q125 0 231 -34l53 129h214z" />
    <glyph glyph-name="Ugrave" unicode="&#xd9;" horiz-adv-x="1520" 
d="M1360 580q0 -604 -612 -604q-588 0 -588 581v877h238v-828q0 -422 368 -422q356 0 356 407v843h238v-854zM894 1536h-173l-262 328h214z" />
    <glyph glyph-name="Uacute" unicode="&#xda;" horiz-adv-x="1520" 
d="M1360 580q0 -604 -612 -604q-588 0 -588 581v877h238v-828q0 -422 368 -422q356 0 356 407v843h238v-854zM863 1862h214l-262 -328h-173z" />
    <glyph glyph-name="Ucircumflex" unicode="&#xdb;" horiz-adv-x="1520" 
d="M1360 580q0 -604 -612 -604q-588 0 -588 581v877h238v-828q0 -422 368 -422q356 0 356 407v843h238v-854zM469 1489l232 355h118l232 -355h-168l-123 216l-123 -216h-168z" />
    <glyph glyph-name="Udieresis" unicode="&#xdc;" horiz-adv-x="1520" 
d="M1360 580q0 -604 -612 -604q-588 0 -588 581v877h238v-828q0 -422 368 -422q356 0 356 407v843h238v-854zM559 1488q-60 0 -102 39.5t-42 94.5q0 56 42 96t102 40q61 0 103.5 -40t42.5 -96q0 -55 -42.5 -94.5t-103.5 -39.5zM959 1488q-60 0 -102 39.5t-42 94.5
q0 56 42 96t102 40q61 0 103.5 -40t42.5 -96q0 -55 -42.5 -94.5t-103.5 -39.5z" />
    <glyph glyph-name="Yacute" unicode="&#xdd;" horiz-adv-x="1299" 
d="M543 677l-454 747h258l317 -520l316 520h256l-455 -746v-679l-238 -1v679zM766 1862h214l-262 -328h-173z" />
    <glyph glyph-name="Thorn" unicode="&#xde;" horiz-adv-x="1220" 
d="M350 1038v-524h244q153 0 233 71t80 200q0 253 -294 253h-263zM347 1l-237 -1v1434h238v-200h287q247 0 383 -115t136 -324t-142 -342t-384 -133h-280z" />
    <glyph glyph-name="germandbls" unicode="&#xdf;" horiz-adv-x="1220" 
d="M1147 414q0 -114 -39 -196.5t-109.5 -136.5t-170 -79.5t-319.5 -25.5l2 184q151 0 204 13.5t96.5 42.5t71 74t27.5 109q0 54 -21.5 101.5t-67 83t-116.5 56t-191 20.5l-1 179q89 0 152 15t103 44.5t58.5 73t18.5 101.5q0 48 -16.5 85.5t-45.5 63t-70.5 38.5t-90.5 13
q-41 0 -81.5 -12t-73 -33.5t-53 -53t-20.5 -70.5l-4 -1117l-231 -3v1121q0 80 33.5 145.5t94.5 111.5t153.5 71t196.5 25q92 0 168 -20t139 -62t100.5 -107t37.5 -155q0 -86 -28 -148t-73.5 -104t-95 -66t-106.5 -36q73 -5 139.5 -28.5t117.5 -66t81 -105t30 -146.5z" />
    <glyph glyph-name="agrave" unicode="&#xe0;" 
d="M616 863q-136 0 -215 -95t-79 -262q0 -161 80 -253.5t214 -92.5q137 0 210.5 91t73.5 259q0 169 -73.5 261t-210.5 92zM910 127q-1 -2 -3 -3q-131 -148 -351 -148q-215 0 -343 143.5t-128 380.5q0 258 133.5 403t359.5 145q211 0 332 -134v110h232v-1025h-232v128z
M759 1126h-173l-262 328h214z" />
    <glyph glyph-name="aacute" unicode="&#xe1;" 
d="M616 863q-136 0 -215 -95t-79 -262q0 -161 80 -253.5t214 -92.5q137 0 210.5 91t73.5 259q0 169 -73.5 261t-210.5 92zM910 127q-1 -2 -3 -3q-131 -148 -351 -148q-215 0 -343 143.5t-128 380.5q0 258 133.5 403t359.5 145q211 0 332 -134v110h232v-1025h-232v128z
M690 1452h214l-262 -328h-173z" />
    <glyph glyph-name="acircumflex" unicode="&#xe2;" 
d="M616 863q-136 0 -215 -95t-79 -262q0 -161 80 -253.5t214 -92.5q137 0 210.5 91t73.5 259q0 169 -73.5 261t-210.5 92zM910 127q-1 -2 -3 -3q-131 -148 -351 -148q-215 0 -343 143.5t-128 380.5q0 258 133.5 403t359.5 145q211 0 332 -134v110h232v-1025h-232v128z
M323 1079l232 355h118l232 -355h-168l-123 216l-123 -216h-168z" />
    <glyph glyph-name="atilde" unicode="&#xe3;" 
d="M616 863q-136 0 -215 -95t-79 -262q0 -161 80 -253.5t214 -92.5q137 0 210.5 91t73.5 259q0 169 -73.5 261t-210.5 92zM910 127q-1 -2 -3 -3q-131 -148 -351 -148q-215 0 -343 143.5t-128 380.5q0 258 133.5 403t359.5 145q211 0 332 -134v110h232v-1025h-232v128z
M924 1346q-5 -97 -49.5 -150.5t-121.5 -53.5q-67 0 -163 60q-59 41 -97 41q-85 0 -89 -103h-101q3 95 48.5 149.5t122.5 54.5q69 0 144 -46q81 -55 121 -55q37 0 59.5 28.5t23.5 74.5h102z" />
    <glyph glyph-name="adieresis" unicode="&#xe4;" 
d="M616 863q-136 0 -215 -95t-79 -262q0 -161 80 -253.5t214 -92.5q137 0 210.5 91t73.5 259q0 169 -73.5 261t-210.5 92zM910 127q-1 -2 -3 -3q-131 -148 -351 -148q-215 0 -343 143.5t-128 380.5q0 258 133.5 403t359.5 145q211 0 332 -134v110h232v-1025h-232v128z
M413 1078q-60 0 -102 39.5t-42 94.5q0 56 42 96t102 40q61 0 103.5 -40t42.5 -96q0 -55 -42.5 -94.5t-103.5 -39.5zM813 1078q-60 0 -102 39.5t-42 94.5q0 56 42 96t102 40q61 0 103.5 -40t42.5 -96q0 -55 -42.5 -94.5t-103.5 -39.5z" />
    <glyph glyph-name="aring" unicode="&#xe5;" 
d="M616 863q-136 0 -215 -95t-79 -262q0 -161 80 -253.5t214 -92.5q137 0 210.5 91t73.5 259q0 169 -73.5 261t-210.5 92zM910 127q-1 -2 -3 -3q-131 -148 -351 -148q-215 0 -343 143.5t-128 380.5q0 258 133.5 403t359.5 145q211 0 332 -134v110h232v-1025h-232v128z
M512 1257q0 -42 29 -71t71 -29t71 29t29 71q0 40 -29.5 69.5t-70.5 29.5t-70.5 -29.5t-29.5 -69.5zM436 1257q0 75 51 126t125 51q76 0 127.5 -51.5t51.5 -125.5q0 -75 -51.5 -126.5t-127.5 -51.5q-74 0 -125 51.5t-51 126.5z" />
    <glyph glyph-name="ae" unicode="&#xe6;" horiz-adv-x="2046" 
d="M616 863q-136 0 -215 -95t-79 -262q0 -161 80 -253.5t214 -92.5q137 0 210.5 91t73.5 259q0 169 -73.5 261t-210.5 92zM1715 580q-13 119 -70 191q-74 92 -211 92q-136 0 -215 -95q-61 -73 -75 -188h571zM986 191q-150 -215 -430 -215q-215 0 -343 143.5t-128 380.5
q0 258 133.5 403t359.5 145q211 0 332 -134v110h232l-1 -51q127 75 307 75q240 0 374 -141t134 -391q0 -54 -7 -104l-802 3q17 -98 73 -162q80 -93 214 -93q137 0 211 91q17 21 30 46l207 -82q-29 -50 -70 -91q-145 -148 -389 -148q-237 0 -378 144q-33 33 -59 71z" />
    <glyph glyph-name="ccedilla" unicode="&#xe7;" horiz-adv-x="1177" 
d="M530 -19q-180 21 -296 139q-142 143 -142 380q0 258 147.5 403t397.5 145q240 0 374 -141q50 -52 81 -120l-222 -76q-15 33 -36 60q-74 92 -211 92q-136 0 -215 -95t-79 -262q0 -161 80 -253.5t214 -92.5q137 0 211 91q33 42 51 100l219 -68q-36 -91 -103 -159
q-129 -131 -335 -146v-75q87 0 138 -40.5t51 -113.5q0 -194 -288 -194q-47 0 -81 3v111q44 -6 71 -6q133 0 133 82q0 74 -121 74q-10 0 -39 -4v166z" />
    <glyph glyph-name="egrave" unicode="&#xe8;" 
d="M897 580q-13 119 -70 191q-74 92 -211 92q-136 0 -215 -95q-61 -73 -75 -188h571zM857 297l207 -82q-29 -50 -70 -91q-145 -148 -389 -148q-237 0 -378.5 143.5t-141.5 380.5q0 258 147.5 403t397.5 145q240 0 374 -141t134 -391q0 -54 -7 -104l-802 3q17 -98 73 -162
q80 -93 214 -93q137 0 211 91q17 21 30 46zM757 1126h-173l-262 328h214z" />
    <glyph glyph-name="eacute" unicode="&#xe9;" 
d="M897 580q-13 119 -70 191q-74 92 -211 92q-136 0 -215 -95q-61 -73 -75 -188h571zM857 297l207 -82q-29 -50 -70 -91q-145 -148 -389 -148q-237 0 -378.5 143.5t-141.5 380.5q0 258 147.5 403t397.5 145q240 0 374 -141t134 -391q0 -54 -7 -104l-802 3q17 -98 73 -162
q80 -93 214 -93q137 0 211 91q17 21 30 46zM688 1452h214l-262 -328h-173z" />
    <glyph glyph-name="ecircumflex" unicode="&#xea;" 
d="M897 580q-13 119 -70 191q-74 92 -211 92q-136 0 -215 -95q-61 -73 -75 -188h571zM857 297l207 -82q-29 -50 -70 -91q-145 -148 -389 -148q-237 0 -378.5 143.5t-141.5 380.5q0 258 147.5 403t397.5 145q240 0 374 -141t134 -391q0 -54 -7 -104l-802 3q17 -98 73 -162
q80 -93 214 -93q137 0 211 91q17 21 30 46zM321 1079l232 355h118l232 -355h-168l-123 216l-123 -216h-168z" />
    <glyph glyph-name="edieresis" unicode="&#xeb;" 
d="M897 580q-13 119 -70 191q-74 92 -211 92q-136 0 -215 -95q-61 -73 -75 -188h571zM857 297l207 -82q-29 -50 -70 -91q-145 -148 -389 -148q-237 0 -378.5 143.5t-141.5 380.5q0 258 147.5 403t397.5 145q240 0 374 -141t134 -391q0 -54 -7 -104l-802 3q17 -98 73 -162
q80 -93 214 -93q137 0 211 91q17 21 30 46zM411 1078q-60 0 -102 39.5t-42 94.5q0 56 42 96t102 40q61 0 103.5 -40t42.5 -96q0 -55 -42.5 -94.5t-103.5 -39.5zM811 1078q-60 0 -102 39.5t-42 94.5q0 56 42 96t102 40q61 0 103.5 -40t42.5 -96q0 -55 -42.5 -94.5
t-103.5 -39.5z" />
    <glyph glyph-name="igrave" unicode="&#xec;" horiz-adv-x="594" 
d="M442 -1h-232v1025h232v-1025zM471 1126h-173l-262 328h214z" />
    <glyph glyph-name="iacute" unicode="&#xed;" horiz-adv-x="594" 
d="M442 -1h-232v1025h232v-1025zM402 1452h214l-262 -328h-173z" />
    <glyph glyph-name="icircumflex" unicode="&#xee;" horiz-adv-x="594" 
d="M442 -1h-232v1025h232v-1025zM35 1079l232 355h118l232 -355h-168l-123 216l-123 -216h-168z" />
    <glyph glyph-name="idieresis" unicode="&#xef;" horiz-adv-x="594" 
d="M442 -1h-232v1025h232v-1025zM125 1078q-60 0 -102 39.5t-42 94.5q0 56 42 96t102 40q61 0 103.5 -40t42.5 -96q0 -55 -42.5 -94.5t-103.5 -39.5zM525 1078q-60 0 -102 39.5t-42 94.5q0 56 42 96t102 40q61 0 103.5 -40t42.5 -96q0 -55 -42.5 -94.5t-103.5 -39.5z" />
    <glyph glyph-name="eth" unicode="&#xf0;" horiz-adv-x="1139" 
d="M267 460.5q0 -138.5 73.5 -219.5t210.5 -81q133 0 213 82.5t80 216.5t-79 214t-214 80q-137 0 -210.5 -77t-73.5 -215.5zM1030 1094q8 -20 15 -41q56 -180 41.5 -485t-151 -448.5t-372.5 -143.5q-244 0 -378.5 132.5t-134.5 345t124 348.5t364 136q184 0 306 -111
q-6 111 -21 183l-159 -64l-64 158l156 63q-12 18 -26 32q-41 42 -199 47l-5 195q117 0 207 -25.5t173 -104.5q27 -26 51 -62l149 60l64 -158z" />
    <glyph glyph-name="ntilde" unicode="&#xf1;" horiz-adv-x="1195" 
d="M1063 0h-232v577q0 287 -203 287q-106 0 -175 -79.5t-69 -200.5v-584h-233v1024h233v-170h4q115 194 332 194q167 0 255 -108.5t88 -313.5v-626zM918 1346q-5 -97 -49.5 -150.5t-121.5 -53.5q-67 0 -163 60q-59 41 -97 41q-85 0 -89 -103h-101q3 95 48.5 149.5
t122.5 54.5q69 0 144 -46q81 -55 121 -55q37 0 59.5 28.5t23.5 74.5h102z" />
    <glyph glyph-name="ograve" unicode="&#xf2;" 
d="M605 -24q-237 0 -378.5 143.5t-141.5 380.5q0 258 147.5 403t397.5 145q240 0 374 -141t134 -391q0 -245 -144.5 -392.5t-388.5 -147.5zM616 863q-136 0 -215 -95t-79 -262q0 -161 80 -253.5t214 -92.5q137 0 210.5 91t73.5 259q0 169 -73.5 261t-210.5 92zM757 1126
h-173l-262 328h214z" />
    <glyph glyph-name="oacute" unicode="&#xf3;" 
d="M605 -24q-237 0 -378.5 143.5t-141.5 380.5q0 258 147.5 403t397.5 145q240 0 374 -141t134 -391q0 -245 -144.5 -392.5t-388.5 -147.5zM616 863q-136 0 -215 -95t-79 -262q0 -161 80 -253.5t214 -92.5q137 0 210.5 91t73.5 259q0 169 -73.5 261t-210.5 92zM688 1452h214
l-262 -328h-173z" />
    <glyph glyph-name="ocircumflex" unicode="&#xf4;" 
d="M605 -24q-237 0 -378.5 143.5t-141.5 380.5q0 258 147.5 403t397.5 145q240 0 374 -141t134 -391q0 -245 -144.5 -392.5t-388.5 -147.5zM616 863q-136 0 -215 -95t-79 -262q0 -161 80 -253.5t214 -92.5q137 0 210.5 91t73.5 259q0 169 -73.5 261t-210.5 92zM321 1079
l232 355h118l232 -355h-168l-123 216l-123 -216h-168z" />
    <glyph glyph-name="otilde" unicode="&#xf5;" 
d="M605 -24q-237 0 -378.5 143.5t-141.5 380.5q0 258 147.5 403t397.5 145q240 0 374 -141t134 -391q0 -245 -144.5 -392.5t-388.5 -147.5zM616 863q-136 0 -215 -95t-79 -262q0 -161 80 -253.5t214 -92.5q137 0 210.5 91t73.5 259q0 169 -73.5 261t-210.5 92zM922 1346
q-5 -97 -49.5 -150.5t-121.5 -53.5q-67 0 -163 60q-59 41 -97 41q-85 0 -89 -103h-101q3 95 48.5 149.5t122.5 54.5q69 0 144 -46q81 -55 121 -55q37 0 59.5 28.5t23.5 74.5h102z" />
    <glyph glyph-name="odieresis" unicode="&#xf6;" 
d="M605 -24q-237 0 -378.5 143.5t-141.5 380.5q0 258 147.5 403t397.5 145q240 0 374 -141t134 -391q0 -245 -144.5 -392.5t-388.5 -147.5zM616 863q-136 0 -215 -95t-79 -262q0 -161 80 -253.5t214 -92.5q137 0 210.5 91t73.5 259q0 169 -73.5 261t-210.5 92zM411 1078
q-60 0 -102 39.5t-42 94.5q0 56 42 96t102 40q61 0 103.5 -40t42.5 -96q0 -55 -42.5 -94.5t-103.5 -39.5zM811 1078q-60 0 -102 39.5t-42 94.5q0 56 42 96t102 40q61 0 103.5 -40t42.5 -96q0 -55 -42.5 -94.5t-103.5 -39.5z" />
    <glyph glyph-name="divide" unicode="&#xf7;" horiz-adv-x="1014" 
d="M87 647v140h839l1 -1v-139h-840zM506 187q-60 0 -102 39.5t-42 94.5q0 56 42 96t102 40q61 0 103.5 -40t42.5 -96q0 -55 -42.5 -94.5t-103.5 -39.5zM506 978q-60 0 -102 39.5t-42 94.5q0 56 42 96t102 40q61 0 103.5 -40t42.5 -96q0 -55 -42.5 -94.5t-103.5 -39.5z" />
    <glyph glyph-name="oslash" unicode="&#xf8;" 
d="M650 869q-16 1 -33 1q-136 0 -215 -95t-79 -262q0 -158 77 -250zM573 170q21 -3 44 -3q137 0 210.5 91t73.5 259q0 169 -73 261l-2 2zM912 986q51 -30 92 -73q134 -141 134 -391q0 -245 -144.5 -392.5t-388.5 -147.5q-56 0 -106 8l-128 -308h-211l154 374q-47 29 -87 70
q-142 143 -142 380q0 258 147.5 403t397.5 145q49 0 94 -6l126 306h214z" />
    <glyph glyph-name="ugrave" unicode="&#xf9;" horiz-adv-x="1195" 
d="M1044 0h-232v162h-4q-101 -186 -314 -186q-363 0 -363 436v612h232v-588q0 -276 213 -276q103 0 169.5 76t66.5 199v589h232v-1024zM733 1126h-173l-262 328h214z" />
    <glyph glyph-name="uacute" unicode="&#xfa;" horiz-adv-x="1195" 
d="M1044 0h-232v162h-4q-101 -186 -314 -186q-363 0 -363 436v612h232v-588q0 -276 213 -276q103 0 169.5 76t66.5 199v589h232v-1024zM664 1452h214l-262 -328h-173z" />
    <glyph glyph-name="ucircumflex" unicode="&#xfb;" horiz-adv-x="1195" 
d="M1044 0h-232v162h-4q-101 -186 -314 -186q-363 0 -363 436v612h232v-588q0 -276 213 -276q103 0 169.5 76t66.5 199v589h232v-1024zM297 1079l232 355h118l232 -355h-168l-123 216l-123 -216h-168z" />
    <glyph glyph-name="udieresis" unicode="&#xfc;" horiz-adv-x="1195" 
d="M1044 0h-232v162h-4q-101 -186 -314 -186q-363 0 -363 436v612h232v-588q0 -276 213 -276q103 0 169.5 76t66.5 199v589h232v-1024zM387 1078q-60 0 -102 39.5t-42 94.5q0 56 42 96t102 40q61 0 103.5 -40t42.5 -96q0 -55 -42.5 -94.5t-103.5 -39.5zM787 1078
q-60 0 -102 39.5t-42 94.5q0 56 42 96t102 40q61 0 103.5 -40t42.5 -96q0 -55 -42.5 -94.5t-103.5 -39.5z" />
    <glyph glyph-name="yacute" unicode="&#xfd;" horiz-adv-x="1186" 
d="M873 1030h230v-948q0 -141 -36.5 -247t-105.5 -176.5t-169 -105.5t-227 -35q-33 0 -80 5t-98 19t-101.5 39.5t-90.5 66t-65 98.5t-25 138h237q0 -89 61 -136t163 -47q70 0 126.5 22.5t96.5 67.5t61 112t21 157v112h-4q-115 -196 -346 -196q-105 0 -183 40.5t-130 109.5
t-77.5 160.5t-25.5 192.5v551h237v-562q0 -41 16 -99q15 -60 47 -106.5t81 -74t117 -27.5q63 0 113 25t85 67t53.5 98t18.5 118v561zM680 1452h214l-262 -328h-173z" />
    <glyph glyph-name="thorn" unicode="&#xfe;" horiz-adv-x="1234" 
d="M383 844h4q119 204 348 204q195 0 304 -137t109 -368q0 -256 -123 -410t-336 -154q-196 0 -302 172h-4v-572h-232v1857h232v-592zM383 592v-194q10 -83 70 -144q71 -74 181 -74q129 0 202.5 95t73.5 264q0 143 -68.5 223.5t-185.5 80.5q-124 0 -199 -83q-64 -69 -74 -168
z" />
    <glyph glyph-name="ydieresis" unicode="&#xff;" horiz-adv-x="1186" 
d="M873 1030h230v-948q0 -141 -36.5 -247t-105.5 -176.5t-169 -105.5t-227 -35q-33 0 -80 5t-98 19t-101.5 39.5t-90.5 66t-65 98.5t-25 138h237q0 -89 61 -136t163 -47q70 0 126.5 22.5t96.5 67.5t61 112t21 157v112h-4q-115 -196 -346 -196q-105 0 -183 40.5t-130 109.5
t-77.5 160.5t-25.5 192.5v551h237v-562q0 -41 16 -99q15 -60 47 -106.5t81 -74t117 -27.5q63 0 113 25t85 67t53.5 98t18.5 118v561zM403 1108q-60 0 -102 39.5t-42 94.5q0 56 42 96t102 40q61 0 103.5 -40t42.5 -96q0 -55 -42.5 -94.5t-103.5 -39.5zM803 1108
q-60 0 -102 39.5t-42 94.5q0 56 42 96t102 40q61 0 103.5 -40t42.5 -96q0 -55 -42.5 -94.5t-103.5 -39.5z" />
    <glyph glyph-name="dotlessi" unicode="&#x131;" horiz-adv-x="594" 
d="M442 -1h-232v1025h232v-1025z" />
    <glyph glyph-name="OE" unicode="&#x152;" horiz-adv-x="2394" 
d="M779 1249q-197 0 -320.5 -147t-123.5 -387q0 -239 120 -385t314 -146q206 0 325 139t119 389q0 257 -115.5 397t-318.5 140zM1235 142q-182 -166 -467 -166q-310 0 -496.5 201t-186.5 523q0 346 190 552t516 206q268 0 444 -158v140h1055v-208l-817 -1v-391h767v-208
l-767 -1v-422l817 -1v-208h-1055v142z" />
    <glyph glyph-name="oe" unicode="&#x153;" horiz-adv-x="2065" 
d="M616 863q-136 0 -215 -95t-79 -262q0 -161 80 -253.5t214 -92.5q137 0 210.5 91t73.5 259q0 169 -73.5 261t-210.5 92zM1739 580q-13 119 -70 191q-74 92 -211 92q-136 0 -215 -95q-61 -73 -75 -188h571zM1029 164q-16 -21 -35 -40q-145 -148 -389 -148
q-237 0 -378.5 143.5t-141.5 380.5q0 258 147.5 403t397.5 145q240 0 374 -141q19 -20 36 -42q16 20 35 38q147 145 397 145q240 0 374 -141t134 -391q0 -54 -7 -104l-802 3q17 -98 73 -162q80 -93 214 -93q137 0 211 91q17 21 30 46l207 -82q-29 -50 -70 -91
q-145 -148 -389 -148q-237 0 -378 144q-22 21 -40 44z" />
    <glyph glyph-name="Ydieresis" unicode="&#x178;" horiz-adv-x="1299" 
d="M543 677l-454 747h258l317 -520l316 520h256l-455 -746v-679l-238 -1v679zM462 1488q-60 0 -102 39.5t-42 94.5q0 56 42 96t102 40q61 0 103.5 -40t42.5 -96q0 -55 -42.5 -94.5t-103.5 -39.5zM862 1488q-60 0 -102 39.5t-42 94.5q0 56 42 96t102 40q61 0 103.5 -40
t42.5 -96q0 -55 -42.5 -94.5t-103.5 -39.5z" />
    <glyph glyph-name="circumflex" unicode="&#x2c6;" horiz-adv-x="1024" 
d="M221 1079l232 355h118l232 -355h-168l-123 216l-123 -216h-168z" />
    <glyph glyph-name="caron" unicode="&#x2c7;" horiz-adv-x="1024" 
d="M221 1434h178l113 -214l113 214h178l-232 -356h-118z" />
    <glyph glyph-name="uni02C9" unicode="&#x2c9;" horiz-adv-x="1024" 
d="M254 1195v125h516v-125h-516z" />
    <glyph glyph-name="breve" unicode="&#x2d8;" horiz-adv-x="1024" 
d="M219 1349h131q17 -73 55 -107t107 -34q79 0 106 33.5t44 107.5h141q-20 -133 -94 -201.5t-197 -68.5q-122 0 -197 69t-96 201z" />
    <glyph glyph-name="dotaccent" unicode="&#x2d9;" horiz-adv-x="1024" 
d="M605 1346.5q37 -36.5 37 -87.5q0 -52 -37 -88t-89 -36t-88.5 36t-36.5 88q0 51 36.5 87.5t88.5 36.5t89 -36.5z" />
    <glyph glyph-name="ring" unicode="&#x2da;" horiz-adv-x="1024" 
d="M411 1257q0 -42 29 -71t71 -29t71 29t29 71q0 40 -29.5 69.5t-70.5 29.5t-70.5 -29.5t-29.5 -69.5zM335 1257q0 75 51 126t125 51q76 0 127.5 -51.5t51.5 -125.5q0 -75 -51.5 -126.5t-127.5 -51.5q-74 0 -125 51.5t-51 126.5z" />
    <glyph glyph-name="ogonek" unicode="&#x2db;" horiz-adv-x="1024" 
d="M661 -7q-86 -61 -117.5 -132.5t4.5 -93.5t143 54l56 -68q-46 -53 -100.5 -87t-119.5 -34q-70 0 -114 35.5t-44 90.5q0 76 60.5 156.5t161.5 135.5z" />
    <glyph glyph-name="tilde" unicode="&#x2dc;" horiz-adv-x="779" 
d="M694 1346q-5 -97 -49.5 -150.5t-121.5 -53.5q-67 0 -163 60q-59 41 -97 41q-85 0 -89 -103h-101q3 95 48.5 149.5t122.5 54.5q69 0 144 -46q81 -55 121 -55q37 0 59.5 28.5t23.5 74.5h102z" />
    <glyph glyph-name="hungarumlaut" unicode="&#x2dd;" horiz-adv-x="1024" 
d="M438 1452h214l-262 -328h-173zM873 1452h214l-262 -328h-173z" />
    <glyph glyph-name="uni0531" unicode="&#x531;" horiz-adv-x="1633" 
d="M1360 580q0 -60 -6 -114q140 -8 209.5 -97t69.5 -238v-131h-190v131q0 83 -33 119t-96 38q-126 -312 -566 -312q-588 0 -588 581v877h238v-867q0 -383 368 -383q356 0 356 390v860h238v-854z" />
    <glyph glyph-name="uni0532" unicode="&#x532;" horiz-adv-x="1416" 
d="M1280 810h-238v33q0 407 -316 407q-328 0 -328 -422v-282h932v-201h-932v-345h-238v877q0 581 548 581q572 0 572 -604v-44z" />
    <glyph glyph-name="uni0533" unicode="&#x533;" horiz-adv-x="1412" 
d="M1402 345h-254v-345h-238v345h-305q-121 0 -217 43t-163.5 119t-103.5 179t-36 222t40 219.5t112 174t172.5 115t220.5 41.5q123 0 219 -42t162.5 -115t101.5 -172.5t35 -214.5v-368h254v-201zM910 910q0 166 -77 253t-215 87q-83 0 -137.5 -33t-87 -83.5t-46 -109.5
t-13.5 -110q0 -57 14 -122t47 -119.5t88.5 -90.5t139.5 -36h287v364z" />
    <glyph glyph-name="uni0534" unicode="&#x534;" horiz-adv-x="1465" 
d="M85 854q0 604 572 604q548 0 548 -581v-331h260v-201h-260v-345h-238v828q0 422 -328 422q-316 0 -316 -407v-93h-238v104z" />
    <glyph glyph-name="uni0535" unicode="&#x535;" horiz-adv-x="1416" 
d="M1280 580q0 -604 -572 -604q-548 0 -548 581v877h238v-410h932v-201h-932v-217q0 -422 328 -422q316 0 316 407v33h238v-44z" />
    <glyph glyph-name="uni0536" unicode="&#x536;" horiz-adv-x="1417" 
d="M323 0v-200h-238v402h396q156 57 269 128.5t186.5 154t108.5 173.5t35 187q0 98 -31 173.5t-83.5 126.5t-121 77.5t-142.5 26.5q-84 0 -152.5 -25.5t-118 -75t-77 -122t-27.5 -165.5h-242q0 129 43.5 238.5t123.5 189t194.5 124.5t255.5 45q145 0 261.5 -43t198 -122.5
t125 -191t43.5 -247.5q0 -84 -21 -171t-68.5 -172t-125.5 -163.5t-192 -145.5h97q85 0 144 -35.5t96 -92.5t53.5 -129t16.5 -145h-250q0 43 -9 79.5t-30 63.5t-54.5 42t-81.5 15h-582z" />
    <glyph glyph-name="uni0537" unicode="&#x537;" horiz-adv-x="1307" 
d="M177 0v1434h238v-410h776v-201h-776v-622h412q91 0 151.5 -35.5t96.5 -92.5t51 -128.5t15 -144.5h-251q0 43 -9 79.5t-30 63.5t-54.5 42t-81.5 15h-538z" />
    <glyph glyph-name="uni0538" unicode="&#x538;" horiz-adv-x="1416" 
d="M1280 810h-238v33q0 407 -316 407q-328 0 -328 -422v-627h932v-201h-1170v877q0 581 548 581q572 0 572 -604v-44z" />
    <glyph glyph-name="uni0539" unicode="&#x539;" horiz-adv-x="1607" 
d="M1380 798h227v-196h-227v-166q0 -460 -408 -460q-94 0 -169.5 26t-128 78t-80.5 129t-28 179q0 92 30.5 167.5t85.5 129.5t130.5 83.5t164.5 29.5h165v45q0 102 -27.5 178t-76.5 127t-116 76.5t-146 25.5q-82 0 -151.5 -26.5t-119.5 -79t-78.5 -132t-28.5 -184.5v-828
h-238v877q0 145 42 254t120 181.5t188.5 109t247.5 36.5q143 0 258 -37.5t196 -113t124.5 -189t43.5 -264.5v-56zM1142 602h-147q-51 0 -85.5 -18t-55.5 -48.5t-30 -70.5t-9 -83q0 -37 7.5 -72.5t25.5 -63.5t49 -45t78 -17q49 0 81 19t51 53.5t27 81t8 102.5v162z" />
    <glyph glyph-name="uni053A" unicode="&#x53a;" horiz-adv-x="1414" 
d="M1402 847h-254v-337q0 -115 -35 -213t-101.5 -169t-162.5 -111.5t-219 -40.5q-120 0 -220.5 40t-172.5 111.5t-112 170.5t-40 218t36 217t103.5 168t163.5 108.5t217 38.5h305v386h238v-386h254v-201zM910 847h-287q-84 0 -139.5 -31t-88.5 -80t-47 -109t-14 -117
q0 -51 13.5 -108.5t46 -106t87 -80t137.5 -31.5q137 0 214.5 82.5t77.5 247.5v333z" />
    <glyph glyph-name="uni053B" unicode="&#x53b;" horiz-adv-x="1383" 
d="M415 1434v-355q62 34 139 56t171 22q572 0 572 -604v-235h-238v224q0 407 -316 407q-328 0 -328 -422v-527h-238v1434h238z" />
    <glyph glyph-name="uni053C" unicode="&#x53c;" horiz-adv-x="1101" 
d="M757 201q91 0 151.5 -35.5t96.5 -92.5t51 -128.5t15 -144.5h-251q0 43 -9 79.5t-30 63.5t-54.5 42t-81.5 15h-468v1434h238v-1233h342z" />
    <glyph glyph-name="uni053D" unicode="&#x53d;" horiz-adv-x="1611" 
d="M1067 -24q-206 0 -309.5 99t-103.5 317v431h-239v-823h-238v1434h238v-410h471v-608q0 -138 44.5 -197t136.5 -59q87 0 134 59t47 197v608h232v-632q0 -218 -103.5 -317t-309.5 -99z" />
    <glyph glyph-name="uni053E" unicode="&#x53e;" horiz-adv-x="1432" 
d="M725 -24q-141 0 -258.5 37t-202.5 113.5t-132 194t-47 277.5q0 146 46 276.5t132 238.5h-178v321h238v-120q81 0 159 -6q114 71 251.5 110.5t294.5 39.5q82 0 142 -3t99 -7q46 -4 77 -10v-232q-36 12 -83 23q-40 9 -97 16.5t-129 7.5q-54 0 -108 -4.5t-102 -12.5
q121 -36 214.5 -90t161 -130t105.5 -174t38 -222q0 -156 -46.5 -276.5t-129.5 -202t-196.5 -123.5t-248.5 -42zM335 611q0 -114 34.5 -194.5t90 -132.5t125 -76t140.5 -24q69 0 136 27.5t119.5 83t84.5 140t32 197.5q0 111 -45.5 191t-122.5 137.5t-178.5 90.5t-218.5 46
q-48 -50 -84.5 -104.5t-61.5 -116t-38 -128.5t-13 -137z" />
    <glyph glyph-name="uni053F" unicode="&#x53f;" horiz-adv-x="1434" 
d="M1039 0v354q-47 -30 -102 -54q-47 -20 -108.5 -37t-129.5 -17q-263 0 -402.5 151t-139.5 453v584h238v-573q0 -204 72 -305.5t224 -101.5q81 0 138.5 23.5t96 61.5t61 87t34.5 100.5t15 101t3 88.5v108h238v-1024h-238z" />
    <glyph glyph-name="uni0540" unicode="&#x540;" horiz-adv-x="1155" 
d="M689 1040l-392 204l152 294l211 -110l-59 -116l366 -190v-62l-598 -859h776v-404h-238v203h-871v109z" />
    <glyph glyph-name="uni0541" unicode="&#x541;" horiz-adv-x="1417" 
d="M1234 -53q-73 73 -99 96q-22 20 -53.5 44.5t-72.5 51.5q-113 -81 -247.5 -122t-276.5 -41q-83 0 -144 13t-104 35t-70 49.5t-42 57.5t-20.5 59t-5.5 53q0 36 19 82t65.5 87.5t125 69.5t196.5 28q132 0 246.5 -29t211.5 -71q54 71 86 166t32 219q0 75 -23 155t-70.5 146.5
t-120 109.5t-172.5 43q-69 0 -121 -17t-90.5 -45t-65 -63t-44.5 -72q-41 -87 -48 -197h-241q10 168 78 301q29 57 73 111t108 96.5t150.5 68.5t200.5 26q107 0 195.5 -26.5t159 -73t123.5 -110t88 -137t52.5 -154t17.5 -162.5q0 -153 -43 -278t-118 -222q38 -26 68 -49.5
t51 -40.5q24 -20 96 -91zM505 301q-88 0 -139 -15.5t-51 -42.5t41 -42.5t129 -15.5q72 0 146.5 17t144.5 53q-61 20 -129 33t-142 13z" />
    <glyph glyph-name="uni0542" unicode="&#x542;" horiz-adv-x="1465" 
d="M85 854q0 604 572 604q548 0 548 -581v-676h260v-201h-498v828q0 422 -328 422q-316 0 -316 -407v-33h-238v44z" />
    <glyph glyph-name="uni0543" unicode="&#x543;" horiz-adv-x="1581" 
d="M160 0v574q0 146 46 276.5t132 238.5h-248v201h308q81 0 159 -6q114 71 251.5 110.5t294.5 39.5q82 0 142 -3t99 -7q46 -4 77 -10v-232q-36 14 -79.5 23t-100.5 16.5t-129 7.5q-54 0 -109 -4.5t-104 -12.5q122 -36 216 -90t162 -130t106 -174t38 -222v-596h-1261z
M1183 608q0 111 -47.5 191t-127.5 136t-184.5 89.5t-219.5 48.5q-47 -50 -85.5 -104.5t-65 -116t-41 -128.5t-14.5 -137v-386h785v407z" />
    <glyph glyph-name="uni0544" unicode="&#x544;" horiz-adv-x="1530" 
d="M1280 557q0 -581 -548 -581q-572 0 -572 604v854h238v-843q0 -407 316 -407q328 0 328 422v828h498v-202h-260v-675z" />
    <glyph glyph-name="uni0545" unicode="&#x545;" horiz-adv-x="1220" 
d="M1147 414q0 -114 -39 -196.5t-109.5 -136.5t-170 -79.5t-219.5 -25.5q-131 0 -231.5 25.5t-168 72t-102 112.5t-34.5 148h235q0 -42 25 -74.5t66.5 -54.5t96.5 -33.5t115 -11.5q51 0 104 13.5t96.5 42.5t71 74t27.5 109q0 54 -21.5 101.5t-67 83t-116.5 56t-171 20.5
h-391v179h370q89 0 152 15t103 44.5t58.5 73t18.5 101.5q0 48 -16.5 85.5t-45.5 63t-70.5 38.5t-90.5 13q-41 0 -81.5 -12t-73 -33.5t-53 -53t-20.5 -70.5h-235q0 81 33.5 146.5t94.5 111.5t153.5 71t196.5 25q92 0 168 -20t139 -62t100.5 -107t37.5 -155q0 -86 -28 -148
t-73.5 -104t-95 -66t-106.5 -36q73 -5 139.5 -28.5t117.5 -66t81 -105t30 -146.5z" />
    <glyph glyph-name="uni0546" unicode="&#x546;" horiz-adv-x="1456" 
d="M250 1232h-260v202h498v-828q0 -422 328 -422q316 0 316 407v113h238v-124q0 -604 -572 -604q-548 0 -548 581v675z" />
    <glyph glyph-name="uni0547" unicode="&#x547;" horiz-adv-x="1425" 
d="M1339 552q0 -119 -44 -223.5t-125 -183t-196 -124t-257 -45.5q-147 0 -264.5 38.5t-199 113t-125 183t-43.5 248.5q0 120 30.5 217.5t84.5 175.5t129.5 138t165.5 105l-299 78l53 195l1091 -302l-53 -195l-458 130q-58 -13 -117 -36t-114 -56t-103 -76t-83.5 -97
t-56 -118.5t-20.5 -140.5q0 -39 7.5 -83.5t24.5 -88t45.5 -83.5t71 -70.5t100 -48.5t133.5 -18q99 0 170 35.5t116.5 89.5t66.5 118.5t21 123.5h248z" />
    <glyph glyph-name="uni0548" unicode="&#x548;" horiz-adv-x="1520" 
d="M1360 0h-238v843q0 407 -356 407q-368 0 -368 -422v-828h-238v877q0 581 588 581q612 0 612 -604v-854z" />
    <glyph glyph-name="uni0549" unicode="&#x549;" horiz-adv-x="1425" 
d="M85 892q0 118 44 223t125 183.5t196 124t257 45.5q147 0 264.5 -38.5t199 -113t125 -183t43.5 -248.5q0 -120 -30.5 -217.5t-84.5 -175.5t-129.5 -138t-165.5 -105l299 -78l-53 -195l-1091 302l53 195l458 -130q58 13 117 36t114 56t103 76t83.5 97t56 118.5t20.5 140.5
q0 39 -7.5 83.5t-24.5 88t-45.5 83.5t-71 70.5t-100 48.5t-133.5 18q-99 0 -170 -35.5t-116.5 -89.5t-66.5 -119t-21 -123h-248z" />
    <glyph glyph-name="uni054A" unicode="&#x54a;" horiz-adv-x="1605" 
d="M645 345v890q-60 -10 -117.5 -36.5t-103 -73.5t-73.5 -116.5t-28 -165.5v-113h-238v124q0 151 54.5 264.5t148.5 189t220 113t269 37.5q137 0 258.5 -36.5t212.5 -109t144 -181.5t53 -254v-877h-238v828q0 106 -29.5 179t-76 120t-104.5 72t-114 34v-888h-238z" />
    <glyph glyph-name="uni054B" unicode="&#x54b;" horiz-adv-x="1417" 
d="M1021 202q85 0 144 -35.5t96 -92.5t53.5 -129t16.5 -145h-250q0 43 -9 79.5t-30 63.5t-54.5 42t-81.5 15h-556v-200h-238v402h396q27 9 59.5 25t61 39t48 54t19.5 72q0 42 -22.5 71.5t-59.5 53t-84 44t-96 44.5t-96 54.5t-84 73.5t-59.5 102t-22.5 140q0 102 41.5 190
t114 153.5t172 102.5t215.5 37q154 0 270 -47.5t192.5 -129t115 -190.5t38.5 -231q0 -84 -17.5 -157t-46 -135t-65 -113t-74.5 -92q-42 -45 -88 -87t-97 -74h78zM1081 845q0 75 -23.5 147.5t-69.5 129.5t-114.5 92t-158.5 35q-74 0 -130.5 -24.5t-94.5 -63.5t-57.5 -86.5
t-19.5 -93.5q0 -58 20.5 -99t54.5 -71.5t77.5 -53.5t88.5 -44.5t89 -44t78.5 -53t56 -71t23.5 -97.5q38 37 71 80t57 92t38 105.5t14 120.5z" />
    <glyph glyph-name="uni054C" unicode="&#x54c;" horiz-adv-x="1540" 
d="M1280 0h-238v843q0 407 -316 407q-328 0 -328 -422v-828h-238v877q0 581 548 581q572 0 572 -604v-27h260v-201h-260v-626z" />
    <glyph glyph-name="uni054D" unicode="&#x54d;" horiz-adv-x="1520" 
d="M1360 580q0 -604 -612 -604q-588 0 -588 581v877h238v-828q0 -422 368 -422q356 0 356 407v843h238v-854z" />
    <glyph glyph-name="uni054E" unicode="&#x54e;" horiz-adv-x="1465" 
d="M967 0v324q-62 -34 -139 -56t-171 -22q-572 0 -572 604v268h238v-257q0 -407 316 -407q328 0 328 422v558h238v-1232h260v-202h-498z" />
    <glyph glyph-name="uni054F" unicode="&#x54f;" horiz-adv-x="1346" 
d="M1260 399q0 -122 -47.5 -203t-128.5 -130t-189 -69.5t-228 -20.5q-114 0 -219 22.5t-185.5 73.5t-129 132.5t-48.5 200.5h249q0 -54 24 -97t68 -73t106 -46t137 -16q92 0 157.5 14.5t107 43t60.5 70.5t19 98q0 61 -32.5 101.5t-85 67.5t-120.5 43.5t-139 29.5
q-107 19 -195.5 53.5t-152 87t-98.5 124.5t-35 166q0 92 39 164t108.5 121.5t165 75t207.5 25.5q105 0 197.5 -22t162 -70.5t110 -125t40.5 -184.5h-247q0 45 -15 82.5t-47 64.5t-82 42t-121 15q-58 0 -107.5 -11t-85.5 -33t-56 -55.5t-20 -78.5q0 -56 21 -95.5t58.5 -67.5
t88.5 -45.5t112 -28.5q71 -13 141.5 -28.5t134.5 -38t119 -54t95.5 -77t63 -106.5t22.5 -142z" />
    <glyph glyph-name="uni0550" unicode="&#x550;" horiz-adv-x="1446" 
d="M1360 730h-238v113q0 407 -356 407q-368 0 -368 -422v-828h-238v877q0 581 588 581q612 0 612 -604v-124z" />
    <glyph glyph-name="uni0551" unicode="&#x551;" horiz-adv-x="1320" 
d="M310 404q0 -64 31.5 -110t82 -76t112.5 -44t123 -14q63 0 126 13.5t113 42.5t81 74t31 109q0 52 -21 99.5t-59 83.5t-91.5 57t-118.5 21h-577v179h174q-24 21 -45 46t-36 56.5t-24 71.5t-9 91q0 65 21 116.5t57 91t84 67.5t102 45.5t111.5 25.5t111.5 8t111.5 -8
t111.5 -25.5t102 -45.5t84 -67.5t57 -91t21 -116.5q0 -86 -24 -147.5t-64.5 -103.5t-92.5 -66t-107 -34q73 -5 136.5 -27t115.5 -63.5t79 -103t27 -145.5q0 -114 -44 -196.5t-122.5 -136.5t-186.5 -79.5t-235 -25.5q-125 0 -232 24t-186 76t-123.5 133t-44.5 195h237z
M440 1073q0 -114 69 -172.5t192 -61.5q53 1 97 17t75.5 45t49 72t17.5 100q0 48 -20.5 85t-55 62.5t-80 39t-94.5 13.5t-94.5 -13.5t-80 -39t-55 -62.5t-20.5 -85z" />
    <glyph glyph-name="uni0552" unicode="&#x552;" horiz-adv-x="1507" 
d="M415 1434v-354q62 34 139 56t171 22q528 0 560 -522h212v-201h-438v108q0 407 -316 407q-328 0 -328 -422v-528h-238v1434h238z" />
    <glyph glyph-name="uni0553" unicode="&#x553;" horiz-adv-x="1616" 
d="M685 0v142q-135 0 -245.5 46t-189 125t-122 183.5t-43.5 221.5q0 113 44 217t123.5 183t190 126t242.5 47v143h238v-142q132 0 243.5 -46.5t192.5 -125t126 -183t45 -219.5q0 -116 -44 -220t-124 -183.5t-192 -126t-247 -46.5v-142h-238zM1284 716q0 86 -28.5 156.5
t-78 121t-115 78t-139.5 27.5v-764q76 0 142 27t115 77t76.5 120t27.5 157zM331 716q0 -83 27 -152.5t75 -120t112.5 -79t139.5 -28.5v761q-80 0 -145 -28t-111.5 -78t-72 -120t-25.5 -155z" />
    <glyph glyph-name="uni0554" unicode="&#x554;" horiz-adv-x="1351" 
d="M1265 120h-817v-120h-238v120h-200v201h200v623q0 114 36 209t103.5 162.5t165 105t220.5 37.5q124 0 222.5 -38.5t166.5 -108t104.5 -167.5t36.5 -216t-32 -214t-96 -164.5t-158.5 -106t-219.5 -37.5q-75 0 -133 12t-98 26q-47 17 -80 39v-162h817v-201zM1017 934
q0 155 -69.5 235.5t-200.5 80.5q-66 0 -121 -20.5t-94.5 -60.5t-61.5 -98t-22 -133q0 -154 77 -238.5t222 -84.5q137 0 203.5 82t66.5 237z" />
    <glyph glyph-name="uni0555" unicode="&#x555;" horiz-adv-x="1548" 
d="M768 -24q-310 0 -496.5 201t-186.5 523q0 346 190 552t516 206q302 0 486.5 -200t184.5 -523q0 -351 -189 -555t-505 -204zM779 1249q-197 0 -320.5 -147t-123.5 -387q0 -239 120 -385t314 -146q206 0 325 139t119 389q0 257 -115.5 397t-318.5 140z" />
    <glyph glyph-name="uni0556" unicode="&#x556;" horiz-adv-x="1445" 
d="M1360 491q0 -98 -24.5 -174.5t-68 -133.5t-103.5 -96.5t-130.5 -64t-148.5 -35.5t-158 -11q-81 0 -159.5 12t-150 38.5t-132.5 68.5t-105.5 100.5t-69.5 135.5t-25 174h249q0 -69 24.5 -122.5t65 -93t92.5 -65t106 -36.5v647q-81 25 -155 51.5t-130 62.5t-89 86t-33 123
t35 125.5t92.5 86t130.5 49t149 15.5h238v-434q62 -16 123 -39.5t116.5 -55.5t103.5 -73t82.5 -92t54.5 -113t20 -136zM1113 491q0 57 -22.5 100.5t-59 77t-81.5 57.5t-90 42v-578q56 12 102.5 35.5t80 60t52 87.5t18.5 118zM464 1154q0 -17 12 -31t33.5 -26t50.5 -23
t62 -21v181q-76 0 -117 -24.5t-41 -55.5z" />
    <glyph glyph-name="uni0559" unicode="&#x559;" horiz-adv-x="217" 
d="M217 1180q-45 0 -84.5 13.5t-69 38.5t-46.5 61.5t-17 82.5q0 49 16 88.5t44.5 67.5t68.5 43t88 15v-100q-23 0 -42 -8t-32.5 -22t-21.5 -33t-8 -41q0 -104 104 -104v-102z" />
    <glyph glyph-name="uni055A" unicode="&#x55a;" horiz-adv-x="239" 
d="M0 1129v83q95 14 109 114q-48 2 -78.5 26t-30.5 77q0 46 32 76.5t81 30.5q56 0 91 -38t35 -97q0 -116 -62 -188t-177 -84z" />
    <glyph glyph-name="uni055B" unicode="&#x55b;" horiz-adv-x="378" 
d="M378 1546l-206 -328h-172l162 328h216z" />
    <glyph glyph-name="uni055C" unicode="&#x55c;" horiz-adv-x="572" 
d="M88 1218q-8 26 -12 51t-4 48q0 72 38 121.5t114 88.5q37 19 59 34t33.5 29t14.5 28t3 31q0 25 -11 72h144q21 -71 21 -119q0 -30 -5.5 -54t-22.5 -47.5t-49 -48.5t-85 -56q-57 -34 -79 -60t-22 -59q0 -28 10 -59h-147z" />
    <glyph glyph-name="uni055D" unicode="&#x55d;" horiz-adv-x="355" 
d="M355 1204h-173l-182 328h214z" />
    <glyph glyph-name="uni055E" unicode="&#x55e;" horiz-adv-x="573" 
d="M331 1359q0 -14 2.5 -27.5t9 -24t18.5 -17t30 -6.5q38 0 54.5 21t16.5 54q0 23 -9.5 42.5t-25.5 33.5t-38.5 22t-47.5 8q-48 0 -83.5 -15.5t-61 -41t-42 -59t-26 -69t-13.5 -71.5t-4 -67h-111q0 32 5 76.5t18 92.5t37 95t61.5 84.5t91.5 60.5t128 23q46 0 88 -15.5
t74 -43t51 -66.5t19 -87q0 -41 -13.5 -74.5t-38 -57t-58 -36.5t-72.5 -13q-47 0 -79.5 15.5t-52.5 40.5t-29.5 57t-9.5 65h111z" />
    <glyph glyph-name="uni055F" unicode="&#x55f;" horiz-adv-x="718" 
d="M393 1488l-202 -212h527v-69h-718v69l292 308z" />
    <glyph glyph-name="uni0561" unicode="&#x561;" horiz-adv-x="1814" 
d="M132 1024h232v-558q0 -161 45.5 -233t153.5 -72q91 0 154.5 91t63.5 218v554h233v-577q0 -286 202 -286q94 0 154.5 86t60.5 223v554h232v-1024h-232v162h-4q-111 -186 -323 -186q-106 0 -185.5 58.5t-108.5 153.5q-114 -212 -340 -212q-338 0 -338 417v631z" />
    <glyph glyph-name="uni0562" unicode="&#x562;" horiz-adv-x="1195" 
d="M1063 304h-232v273q0 287 -203 287q-57 0 -102.5 -23t-77 -62t-48 -89.5t-16.5 -105.5v-403h729v-181h-729v-471h-233v1495h233v-170h4q116 194 332 194q168 0 255.5 -108t87.5 -314v-322z" />
    <glyph glyph-name="uni0563" unicode="&#x563;" horiz-adv-x="1292" 
d="M1082 -471h-232v647h-4q-105 -200 -343 -200q-189 0 -303.5 137.5t-114.5 374.5q0 255 125.5 407.5t337.5 152.5q206 0 298 -166h4v142h232v-843h210v-181h-210v-471zM853 466v132q0 111 -71.5 188t-181.5 77q-129 0 -203.5 -96.5t-74.5 -272.5q0 -156 72 -245t186 -89
q125 0 199 87t74 219z" />
    <glyph glyph-name="uni0564" unicode="&#x564;" horiz-adv-x="1273" 
d="M1063 -471h-232v1048q0 287 -203 287q-57 0 -102.5 -23t-77 -62t-48 -89.5t-16.5 -105.5v-584h-233v1024h233v-170h4q116 194 332 194q168 0 255.5 -108t87.5 -314v-445h210v-181h-210v-471z" />
    <glyph glyph-name="uni0565" unicode="&#x565;" horiz-adv-x="1195" 
d="M1044 0h-232v162h-4q-101 -186 -314 -186q-363 0 -363 436v1104h232v-492h731v-181h-731v-407q0 -276 213 -276q57 0 101 22.5t74 60.5t45.5 87.5t15.5 104.5v285h232v-720z" />
    <glyph glyph-name="uni0566" unicode="&#x566;" horiz-adv-x="1292" 
d="M850 -471v647h-4q-105 -200 -343 -200q-189 0 -303.5 137.5t-114.5 374.5q0 255 125.5 407.5t337.5 152.5q206 0 298 -166h4v142h232v-1314h210v-181h-442zM853 466v132q0 111 -71.5 188t-181.5 77q-129 0 -203.5 -96.5t-74.5 -272.5q0 -156 72 -245t186 -89
q125 0 199 87t74 219z" />
    <glyph glyph-name="uni0567" unicode="&#x567;" horiz-adv-x="1079" 
d="M131 0v1516h232v-492h651v-181h-651v-662h601v-181h-833z" />
    <glyph glyph-name="uni0568" unicode="&#x568;" horiz-adv-x="1195" 
d="M1063 0h-232v577q0 287 -203 287q-57 0 -102.5 -23t-77 -62t-48 -89.5t-16.5 -105.5v-874h729v-181h-962v1495h233v-170h4q116 194 332 194q168 0 255.5 -108t87.5 -314v-626z" />
    <glyph glyph-name="uni0569" unicode="&#x569;" horiz-adv-x="1383" 
d="M1383 635v-196h-150v-46q0 -89 -21.5 -165.5t-68 -132.5t-121.5 -87.5t-181 -31.5q-84 0 -147 25.5t-105 71t-63 107.5t-21 135q0 79 29 138.5t77.5 100t112 61t132.5 20.5h145q0 53 -21 95.5t-59 72t-90 45.5t-113 16q-65 0 -125.5 -21.5t-107 -62.5t-74 -100.5
t-27.5 -135.5v-1015h-233v1495h233v-170h4q29 48 78.5 84.5t107.5 61t120 36.5t116 12q84 0 160.5 -26t135 -78t93 -129.5t34.5 -179.5h150zM1001 439h-127q-42 0 -69 -14.5t-42.5 -36t-22 -46t-6.5 -43.5q0 -23 6.5 -45.5t21 -40t38.5 -28.5t59 -11q37 0 64 16t44.5 44
t25.5 67t8 86v52z" />
    <glyph glyph-name="uni056A" unicode="&#x56a;" horiz-adv-x="1293" 
d="M900 1516h233v-492h150v-181h-150v-341q0 -122 -36.5 -219t-105 -165.5t-166.5 -105t-220 -36.5q-119 0 -215 35.5t-163.5 101.5t-104.5 160.5t-37 212.5q0 127 38 227t108.5 169t171.5 105.5t227 36.5h270v492zM616 843q-76 0 -131.5 -27.5t-91.5 -74.5t-53.5 -111.5
t-17.5 -137.5q0 -72 18 -133t54.5 -105t92 -69t129.5 -25q138 0 211 83.5t73 252.5v347h-284z" />
    <glyph glyph-name="uni056B" unicode="&#x56b;" horiz-adv-x="1195" 
d="M1063 0h-232v577q0 287 -203 287q-57 0 -102.5 -23t-77 -62t-48 -89.5t-16.5 -105.5v-1055h-233v1987h233v-662h4q116 194 332 194q168 0 255.5 -108t87.5 -314v-626z" />
    <glyph glyph-name="uni056C" unicode="&#x56c;" horiz-adv-x="634" 
d="M384 -290h260v-181h-493v1495h233v-1314z" />
    <glyph glyph-name="uni056D" unicode="&#x56d;" horiz-adv-x="1795" 
d="M1664 0h-232v162h-4q-50 -93 -119 -139.5t-175 -46.5q-91 0 -156 27t-106.5 81.5t-61 136.5t-19.5 191v165q0 143 -41 215t-142 72q-57 0 -99 -23t-70 -62t-41.5 -89.5t-13.5 -105.5v-1055h-233v1987h233v-662h4q29 48 61 84.5t69.5 61t82.5 36.5t99 12q167 0 245 -108.5
t78 -313.5v-190q0 -69 10 -121t33 -86.5t60 -51.5t90 -17q57 0 97.5 22.5t67 60.5t39 87.5t12.5 104.5v589h232v-1024z" />
    <glyph glyph-name="uni056E" unicode="&#x56e;" 
d="M449 1289l293 -190q32 -20 57 -38.5t51 -36.5h395v-181h-190q22 -32 39 -68.5t28.5 -79t17 -93.5t5.5 -112q0 -118 -38.5 -213t-108 -162t-167.5 -103t-216 -36q-119 0 -216.5 36t-167 103t-108 162t-38.5 213q0 114 29.5 206t86.5 159t140.5 108.5t191.5 54.5l-378 245
l163 253l196 -126zM908 496q0 105 -35 190.5t-102 156.5h-136q-76 0 -134.5 -26.5t-98 -73.5t-60 -110.5t-20.5 -136.5q0 -72 18 -133.5t54.5 -106.5t91.5 -70.5t129 -25.5t129 25.5t91.5 70.5t54.5 106.5t18 133.5z" />
    <glyph glyph-name="uni056F" unicode="&#x56f;" horiz-adv-x="1195" 
d="M1044 -471h-232v633h-4q-101 -186 -314 -186q-363 0 -363 436v1104h232v-1080q0 -276 213 -276q57 0 101 22.5t74 60.5t45.5 87.5t15.5 104.5v589h232v-1495z" />
    <glyph glyph-name="uni0570" unicode="&#x570;" horiz-adv-x="1192" 
d="M1061 0h-232v560q0 304 -203 304q-102 0 -172 -88t-70 -225v-551h-233v1516h233v-662h4q116 194 332 194q341 0 341 -417v-631z" />
    <glyph glyph-name="uni0571" unicode="&#x571;" horiz-adv-x="1119" 
d="M505 836q-50 -49 -88.5 -97t-65 -101t-40.5 -114t-14 -134q0 -59 17.5 -103.5t47 -74.5t66.5 -45t76 -15q55 0 102.5 21t82 56.5t54.5 83t20 101.5v102q0 60 -24 107.5t-61.5 86.5t-83.5 69.5t-89 56.5zM645 973q73 -45 136 -92.5t108.5 -102.5t71.5 -119.5t26 -142.5
v-516h-225v160h-4q-106 -184 -311 -184q-71 0 -138 22t-119 69.5t-83.5 121t-31.5 176.5q0 91 19.5 169.5t51 146t71.5 125t81.5 106t81.5 88.5t70 73l-354 191l126 236l207 -116l-44 -81l375 -204z" />
    <glyph glyph-name="uni0572" unicode="&#x572;" horiz-adv-x="1273" 
d="M831 -471v1048q0 287 -203 287q-57 0 -102.5 -23t-77 -62t-48 -89.5t-16.5 -105.5v-584h-233v1024h233v-170h4q116 194 332 194q168 0 255.5 -108t87.5 -314v-916h210v-181h-442z" />
    <glyph glyph-name="uni0573" unicode="&#x573;" horiz-adv-x="1078" 
d="M75 1024h118q55 116 123.5 207.5t148 154.5t169 96.5t185.5 33.5q26 0 49 -1.5t40 -3.5q20 -2 38 -4v-196q-15 6 -33 10q-16 4 -37.5 7t-47.5 3q-69 0 -128 -22t-109 -62.5t-92.5 -97t-78.5 -125.5h88q114 0 197 -32.5t136.5 -91t79 -138.5t25.5 -176v-586h-225v160h-4
q-106 -184 -311 -184q-71 0 -132 29t-105 87t-69 145t-25 204q0 115 13.5 214.5t39.5 187.5h-53v181zM296 450q0 -75 13.5 -130.5t38 -93t57.5 -56t72 -18.5q55 0 100 21t77.5 56.5t50 83t17.5 101.5v162q0 55 -13.5 103.5t-44 85t-79.5 57.5t-121 21h-113
q-26 -82 -40.5 -179t-14.5 -214z" />
    <glyph glyph-name="uni0574" unicode="&#x574;" horiz-adv-x="1254" 
d="M1044 0h-232v162h-4q-101 -186 -314 -186q-363 0 -363 436v612h232v-588q0 -276 213 -276q103 0 169.5 76t66.5 199v1081h452v-181h-220v-1335z" />
    <glyph glyph-name="uni0575" unicode="&#x575;" horiz-adv-x="594" 
d="M442 -26q0 -193 -106 -319t-303 -126h-142v181h123q196 0 196 279v1035h232v-1050z" />
    <glyph glyph-name="uni0576" unicode="&#x576;" horiz-adv-x="1264" 
d="M1113 0h-232v162h-4q-101 -186 -314 -186q-363 0 -363 436v923h-210v181h442v-1080q0 -276 213 -276q103 0 169.5 76t66.5 199v589h232v-1024z" />
    <glyph glyph-name="uni0577" unicode="&#x577;" horiz-adv-x="1080" 
d="M73 649q0 92 36 166t99.5 125.5t149 79.5t184.5 28q97 0 182 -22t148 -70t99 -124t36 -183q0 -89 -30.5 -159t-80 -125t-113 -99.5t-130 -82.5t-130 -73.5t-113 -73.5t-80 -81.5t-30.5 -98.5q0 -57 51 -91.5t147 -34.5h509v-201h-557q-96 0 -166 24t-116 67.5t-68.5 103
t-22.5 131.5q0 82 30.5 143.5t80 110.5t113 88t130 75t130 73t113 80.5t80 98t30.5 125.5q0 45 -17 83.5t-48.5 66.5t-76.5 43.5t-100 15.5q-50 0 -94.5 -14.5t-79 -41.5t-54.5 -65.5t-20 -87.5h-221z" />
    <glyph glyph-name="uni0578" unicode="&#x578;" horiz-adv-x="1195" 
d="M1063 0h-232v577q0 287 -203 287q-106 0 -175 -79.5t-69 -200.5v-584h-233v1024h233v-170h4q115 194 332 194q167 0 255 -108.5t88 -313.5v-626z" />
    <glyph glyph-name="uni0579" unicode="&#x579;" horiz-adv-x="889" 
d="M648 395q13 -19 30 -52.5t17 -70.5q0 -46 -27.5 -93.5t-90.5 -110.5l-229 -218q-13 -13 -21 -29t-8 -42q0 -69 68 -69h361v-181h-429q-50 0 -92.5 15t-73.5 44t-49 71.5t-18 98.5q0 57 20 96t66 83l266 261q20 19 28 35.5t8 30.5q0 16 -11 36.5t-23 37.5l-343 510
l304 215l94 -134l-141 -101z" />
    <glyph glyph-name="uni057A" unicode="&#x57a;" horiz-adv-x="1814" 
d="M132 1024h232v-558q0 -161 45.5 -233t153.5 -72q91 0 154.5 91t63.5 218v554h233v-577q0 -286 202 -286q94 0 154.5 86t60.5 223v554h232v-1495h-232v633h-4q-111 -186 -323 -186q-106 0 -185.5 58.5t-108.5 153.5q-114 -212 -340 -212q-338 0 -338 417v631z" />
    <glyph glyph-name="uni057B" unicode="&#x57b;" horiz-adv-x="1124" 
d="M578 1048q93 0 179 -22t151.5 -68.5t104.5 -119.5t39 -175q0 -59 -18.5 -111t-49.5 -99.5t-72.5 -90.5t-88.5 -84.5t-96.5 -82t-95.5 -81.5l-262 -233q-8 -7 -18.5 -18t-20 -24t-16 -28t-6.5 -31q0 -29 21 -49.5t72 -20.5h658v-181h-726q-57 0 -103 15.5t-78 44.5
t-49.5 71t-17.5 95q0 33 10.5 64.5t26 58.5t33.5 48.5t33 35.5q68 63 97.5 127t29.5 142q0 47 -17 84.5t-42.5 71t-55.5 65.5t-55.5 68.5t-42.5 80t-17 99.5q0 81 37 145.5t103 109.5t156 69t197 24zM827 649q0 56 -21.5 96t-56.5 65t-81.5 36.5t-95.5 11.5
q-134 0 -199.5 -46t-65.5 -118q0 -35 13.5 -66.5t33.5 -60.5t44 -57.5t44 -58.5t33.5 -63t13.5 -70q0 -25 -5.5 -47t-13.5 -42q28 26 66 56t77.5 62t78 67.5t68.5 73t48.5 78t18.5 83.5z" />
    <glyph glyph-name="uni057C" unicode="&#x57c;" horiz-adv-x="1195" 
d="M1194 181v-181h-592v87q68 40 117.5 88t81.5 108t47.5 132.5t15.5 161.5q0 72 -18 125.5t-49.5 89.5t-74.5 54t-94 18q-57 0 -102.5 -26t-77 -68.5t-48 -96.5t-16.5 -109v-564h-233v1024h233v-170h4q116 194 332 194q84 0 153 -30.5t118.5 -88.5t77 -142t27.5 -191
q0 -51 -7 -96t-18 -84t-25 -71.5t-29 -58.5q-35 -62 -79 -105h256z" />
    <glyph glyph-name="uni057D" unicode="&#x57d;" horiz-adv-x="1195" 
d="M1044 0h-232v162h-4q-101 -186 -314 -186q-363 0 -363 436v612h232v-588q0 -276 213 -276q103 0 169.5 76t66.5 199v589h232v-1024z" />
    <glyph glyph-name="uni057E" unicode="&#x57e;" horiz-adv-x="1254" 
d="M812 162h-4q-101 -186 -314 -186q-363 0 -363 436v612h232v-588q0 -276 213 -276q103 0 169.5 76t66.5 199v1081h232v-1806h210v-181h-442v633z" />
    <glyph glyph-name="uni057F" unicode="&#x57f;" horiz-adv-x="1856" 
d="M1724 0h-232v577q0 287 -203 287q-106 0 -175 -79.5t-69 -200.5v-584h-233v162h-4q-101 -186 -314 -186q-363 0 -363 436v612h232v-588q0 -276 213 -276q103 0 169.5 76t66.5 199v589h233v-170h4q115 194 332 194q167 0 255 -108.5t88 -313.5v-626z" />
    <glyph glyph-name="uni0580" unicode="&#x580;" horiz-adv-x="1195" 
d="M1063 0h-232v577q0 287 -203 287q-106 0 -175 -79.5t-69 -200.5v-1055h-233v1495h233v-170h4q115 194 332 194q167 0 255 -108.5t88 -313.5v-626z" />
    <glyph glyph-name="uni0581" unicode="&#x581;" horiz-adv-x="1234" 
d="M1083 82q0 -141 -36.5 -247t-105.5 -176.5t-169 -105.5t-227 -35q-33 0 -80 5t-98 19t-101.5 39.5t-90.5 66t-65 98.5t-25 138h237q0 -89 61 -136t163 -47q70 0 126.5 22.5t96.5 67.5t61 112t21 157v112h-4q-115 -196 -346 -196q-105 0 -183 40.5t-130 109.5t-77.5 160.5
t-25.5 192.5q0 114 27 217.5t83.5 181.5t143.5 124t207 46q204 0 301 -166h4v142h232v-942zM603 863q-66 0 -118 -25t-88.5 -72.5t-55.5 -116.5t-19 -156q0 -65 15.5 -124.5t47.5 -106t81 -74t117 -27.5q63 0 113 25t85 67t53.5 98t18.5 118v133q0 52 -19 99.5t-52.5 83.5
t-79 57t-99.5 21z" />
    <glyph glyph-name="uni0582" unicode="&#x582;" horiz-adv-x="787" 
d="M384 181h373v-181h-606v1024h233v-843z" />
    <glyph glyph-name="uni0583" unicode="&#x583;" horiz-adv-x="1856" 
d="M1724 0h-232v577q0 287 -203 287q-106 0 -175 -79.5t-69 -200.5v-1055h-233v633h-4q-101 -186 -314 -186q-363 0 -363 436v612h232v-588q0 -276 213 -276q103 0 169.5 76t66.5 199v1081h233v-662h4q115 194 332 194q167 0 255 -108.5t88 -313.5v-626z" />
    <glyph glyph-name="uni0584" unicode="&#x584;" horiz-adv-x="1234" 
d="M0 -140h151v1164h232v-180h4q119 204 348 204q195 0 304 -137t109 -368q0 -256 -123 -410t-336 -154q-196 0 -302 172h-4v-291h765v-181h-765v-150h-232v150h-151v181zM381 555v-127q0 -112 71.5 -190t181.5 -78q129 0 202.5 100.5t73.5 280.5q0 151 -68.5 236.5
t-185.5 85.5q-124 0 -199.5 -88t-75.5 -220z" />
    <glyph glyph-name="uni0585" unicode="&#x585;" 
d="M605 -24q-237 0 -378.5 143.5t-141.5 380.5q0 258 147.5 403t397.5 145q240 0 374 -141t134 -391q0 -245 -144.5 -392.5t-388.5 -147.5zM616 863q-136 0 -215 -95t-79 -262q0 -161 80 -253.5t214 -92.5q137 0 210.5 91t73.5 259q0 169 -73.5 261t-210.5 92z" />
    <glyph glyph-name="uni0586" unicode="&#x586;" horiz-adv-x="1440" 
d="M855 -471h-233v454q-98 7 -194 38t-172.5 93t-123.5 158t-47 233h239q0 -71 26.5 -127.5t69 -98t95.5 -67.5t107 -34v665q-84 25 -158 56.5t-130 75t-88.5 101t-32.5 135.5q0 82 35.5 140t93 95t131 53.5t149.5 16.5h233v-518q62 -16 123 -38t116.5 -52.5t103.5 -70.5
t82.5 -91t54.5 -115t20 -142q0 -123 -41.5 -212.5t-111 -150.5t-160 -95.5t-187.5 -46.5v-455zM1118 489q0 63 -24 108.5t-62.5 79.5t-85 57.5t-91.5 41.5v-596q57 12 105 35.5t83 61t55 89.5t20 123zM452 1209q0 -30 11.5 -53.5t37.5 -43.5t57 -33.5t64 -27.5v275
q-38 0 -70 -7.5t-54.5 -24.5t-34 -40t-11.5 -45z" />
    <glyph glyph-name="uni0587" unicode="&#x587;" horiz-adv-x="1430" 
d="M812 162h-4q-101 -186 -314 -186q-363 0 -363 436v1104h232v-1080q0 -276 213 -276q103 0 169.5 76t66.5 199v589h232v-843h386v-181h-618v162z" />
    <glyph glyph-name="uni0589" unicode="&#x589;" horiz-adv-x="494" 
d="M247 -22q-60 0 -102 39.5t-42 94.5q0 56 42 96t102 40q61 0 103.5 -40t42.5 -96q0 -55 -42.5 -94.5t-103.5 -39.5zM247 769q-60 0 -102 39.5t-42 94.5q0 56 42 96t102 40q61 0 103.5 -40t42.5 -96q0 -55 -42.5 -94.5t-103.5 -39.5z" />
    <glyph glyph-name="endash" unicode="&#x2013;" horiz-adv-x="1108" 
d="M56 419v120h996v-120h-996z" />
    <glyph glyph-name="emdash" unicode="&#x2014;" horiz-adv-x="2048" 
d="M0 419v120h2048v-120h-2048z" />
    <glyph glyph-name="quoteleft" unicode="&#x2018;" horiz-adv-x="529" 
d="M356 1442v-447h-183v447h183z" />
    <glyph glyph-name="quoteright" unicode="&#x2019;" horiz-adv-x="529" 
d="M356 1442v-447h-183v447h183z" />
    <glyph glyph-name="quotesinglbase" unicode="&#x201a;" horiz-adv-x="494" 
d="M368 239l-155 -499h-174l110 499h219z" />
    <glyph glyph-name="quotedblleft" unicode="&#x201c;" horiz-adv-x="896" 
d="M359 1442v-447h-182v447h182zM720 1442v-447h-184v447h184z" />
    <glyph glyph-name="quotedblright" unicode="&#x201d;" horiz-adv-x="896" 
d="M359 1442v-447h-182v447h182zM720 1442v-447h-184v447h184z" />
    <glyph glyph-name="quotedblbase" unicode="&#x201e;" horiz-adv-x="896" 
d="M359 224v-447h-182v447h182zM720 224v-447h-184v447h184z" />
    <glyph glyph-name="dagger" unicode="&#x2020;" horiz-adv-x="797" 
d="M478 244h-163v736h-250v141h250v311h163v-311h251v-141h-251v-736z" />
    <glyph glyph-name="daggerdbl" unicode="&#x2021;" horiz-adv-x="797" 
d="M729 567h-251v-323h-163v323h-250v137h250v276h-250v141h250v311h163v-311h251v-141h-251v-276h251v-137z" />
    <glyph glyph-name="bullet" unicode="&#x2022;" horiz-adv-x="1024" 
d="M216 718q0 123 87 209t210 86q122 0 208.5 -86.5t86.5 -208.5t-87.5 -209.5t-209.5 -87.5q-123 0 -209 87t-86 210z" />
    <glyph glyph-name="ellipsis" unicode="&#x2026;" horiz-adv-x="2048" 
d="M247 -22q-60 0 -102 39.5t-42 94.5q0 56 42 96t102 40q61 0 103.5 -40t42.5 -96q0 -55 -42.5 -94.5t-103.5 -39.5zM930 -22q-60 0 -102 39.5t-42 94.5q0 56 42 96t102 40q61 0 103.5 -40t42.5 -96q0 -55 -42.5 -94.5t-103.5 -39.5zM1613 -22q-60 0 -102 39.5t-42 94.5
q0 56 42 96t102 40q61 0 103.5 -40t42.5 -96q0 -55 -42.5 -94.5t-103.5 -39.5z" />
    <glyph glyph-name="guilsinglleft" unicode="&#x2039;" horiz-adv-x="1422" 
d="M1159 98l-893 429v106l893 466v-190l-653 -324v-4l653 -294v-189z" />
    <glyph glyph-name="guilsinglright" unicode="&#x203a;" horiz-adv-x="1422" 
d="M1159 533l-893 -429v189l654 291v6l-654 324v190l893 -465v-106z" />
    <glyph glyph-name="fraction" unicode="&#x2044;" horiz-adv-x="342" 
d="M-342 -29l940 1461h84l-938 -1461h-86z" />
    <glyph glyph-name="fraction" unicode="&#x2215;" horiz-adv-x="342" 
d="M-342 -29l940 1461h84l-938 -1461h-86z" />
    <glyph glyph-name="franc" unicode="&#x20a3;" horiz-adv-x="1166" 
d="M157 396v1044h925v-208l-687 -1v-491h617v-208l-617 -1v-135h358v-173h-358v-224l-238 1v223h-124v173h124z" />
    <glyph glyph-name="lira" unicode="&#x20a4;" horiz-adv-x="1137" 
d="M1055 0h-932v176q206 62 206 281v168h-185v175h185v245q0 181 115.5 297t299.5 116q124 0 226 -41v-201q-95 57 -201 57q-218 0 -218 -267v-206h284v-175h-284v-138q0 -215 -193 -301h697v-186z" />
    <glyph glyph-name="peseta" unicode="&#x20a7;" horiz-adv-x="2194" 
d="M323 1238v-524h220q138 0 210 71t72 200q0 253 -265 253h-237zM1029 839q-31 -107 -107 -186q-128 -133 -346 -133h-253v-519l-213 -1v1434h473q222 0 345 -115q79 -75 107 -189v126l232 40v-272h220v-24q38 20 84 33q69 18 150 18q76 0 143 -16t117.5 -51.5t80 -91
t29.5 -133.5h-209q0 33 -34.5 69.5t-123 39.5t-125 -33t-30.5 -100.5t53 -90t153 -38t152.5 -28.5t86.5 -39t69 -61t45.5 -87.5t16.5 -107.5q0 -89 -34.5 -147.5t-93 -94t-137 -50.5t-163.5 -15t-161 17q-26 5 -50 13v-12h-62q-197 0 -303 125.5t-106 318.5v401h-6z
M1352 839h-85v-386q0 -102 26 -166h241q0 -39 24 -67t64 -49.5t100.5 -21.5t98 10.5t62.5 31t34 36t9 56.5q0 44 -23.5 73.5t-61.5 49t-132 33t-158 33.5t-110 53t-76.5 95.5t-25.5 139.5q3 43 13 79z" />
    <glyph glyph-name="Euro" unicode="&#x20ac;" horiz-adv-x="1386" 
d="M456 531q25 -116 84 -201q102 -146 267 -146q175 0 276 139q36 49 59 111l195 -70q-38 -103 -102 -184q-161 -204 -429 -204q-264 0 -422 201q-115 145 -147 354h-190v119h179q-1 25 -1 50q0 35 2 69h-180v119h191q34 217 149 364q161 206 438 206q257 0 414 -200
q61 -78 98 -175l-190 -99q-23 71 -61 125q-98 140 -271 140q-167 0 -272 -147q-64 -90 -89 -214h443v-119h-458q-1 -26 -1 -54q0 -33 2 -65h457v-119h-441z" />
    <glyph glyph-name="afii61352" unicode="&#x2116;" horiz-adv-x="2257" 
d="M415 1033v-1032l-238 -1v1434h238l622 -1046v1046h238v-1433l-238 -1h-8zM1820 791q-156 0 -249.5 86t-93.5 228q0 155 97.5 242t262.5 87q158 0 246.5 -84.5t88.5 -234.5q0 -147 -95.5 -235.5t-256.5 -88.5zM1828 1323q-90 0 -142 -57t-52 -157q0 -97 52.5 -152.5
t141.5 -55.5q90 0 138.5 54.5t48.5 155.5t-48.5 156.5t-138.5 55.5zM2037 553h-425v119h425v-119z" />
    <glyph glyph-name="trademark" unicode="&#x2122;" horiz-adv-x="1463" 
d="M380 1354v-494h-107v494h-202v80h510v-80h-201zM689 1236v-376h-107v574h107l259 -478l257 478h107v-574h-107v376l-203 -376h-110z" />
    <glyph glyph-name="minus" unicode="&#x2212;" horiz-adv-x="1014" 
d="M87 647v140h839l1 -1v-139h-840z" />
    <glyph glyph-name="uniF001" unicode="&#xf001;" horiz-adv-x="1394" 
d="M188 1025v21q0 193 106 319t303 126h142v-181h-123q-196 0 -196 -279v-6h300v-185h-300v-844h-232v844h-138v185h138zM1242 -1h-232v1025h232v-1025zM1242 1201h-232v235h232v-235z" />
    <glyph glyph-name="uniF001" unicode="&#xfb01;" horiz-adv-x="1394" 
d="M188 1025v21q0 193 106 319t303 126h142v-181h-123q-196 0 -196 -279v-6h300v-185h-300v-844h-232v844h-138v185h138zM1242 -1h-232v1025h232v-1025zM1242 1201h-232v235h232v-235z" />
    <glyph glyph-name="uniF002" unicode="&#xf002;" horiz-adv-x="1394" 
d="M188 1025v21q0 193 106 319t303 126h142v-181h-123q-196 0 -196 -279v-6h300v-185h-300v-844h-232v844h-138v185h138zM1242 -1h-232v1437h232v-1437z" />
    <glyph glyph-name="uniF002" unicode="&#xfb02;" horiz-adv-x="1394" 
d="M188 1025v21q0 193 106 319t303 126h142v-181h-123q-196 0 -196 -279v-6h300v-185h-300v-844h-232v844h-138v185h138zM1242 -1h-232v1437h232v-1437z" />
  </font>
</defs>
</svg>
